<svg xmlns="http://www.w3.org/2000/svg" viewBox="0 0 30 28"><style>.st0{fill:#fff}</style><g id="Layer_1"><g id="XMLID_22_"><path id="XMLID_27_" class="st0" d="M22.5 8.6l1.3-.5 1.1-1.5-1.5-1.5-1.5 1.1-.5 1.3-3.8 3.8 1.2 1z"/><path id="XMLID_24_" class="st0" d="M24.8 19l-6.9-6-.2-.2-2-1.7c.2-1.2.7-4.3-1.1-6-1.1-1.1-2.7-1.8-4.3-1.8-.4 0-.8 0-1.2.1-.1 0-.2.1-.2.2s0 .2.1.3l2.6 2.6.5 2.5-2.1 2.1-2.5-.5L4.9 8c-.1-.1-.2-.1-.3-.1-.1 0-.2.1-.2.2-.4 2 .2 4 1.7 5.5.9.9 2.2 1.3 3.8 1.3.7 0 1.4-.1 2.2-.2l7.9 9.1c.7.7 1.5 1 2.4 1 .9 0 1.8-.4 2.4-1 1.3-1.4 1.3-3.5 0-4.8zM23 22c-.3.3-.9.3-1.2 0-.3-.3-.3-.9 0-1.2.3-.3.9-.3 1.2 0 .3.3.3.8 0 1.2z"/><path id="XMLID_23_" class="st0" d="M11.6 16.3c-.3-.3-.8-.3-1.1 0l-5.1 5.1c-.3.3-.3.8 0 1.1l2 2c.3.3.8.3 1.1 0l4.9-4.9c.3-.3.3-.8 0-1.1l-1.8-2.2z"/></g></g></svg>