<svg xmlns="http://www.w3.org/2000/svg" viewBox="0 0 30 28"><style>.st0{fill:#FFF}</style><g id="レイヤー_6"><g id="XMLID_29_"><path id="XMLID_32_" class="st0" d="M25.5 4.5h-21c-.4 0-.8.3-.8.8v17.4c0 .4.3.8.8.8h20.9c.4 0 .8-.3.8-.8V5.3c.1-.5-.3-.8-.7-.8zm-2.4 1.6c.4 0 .8.4.8.8s-.4.8-.8.8-.8-.4-.8-.8c0-.5.4-.8.8-.8zm-2.8 0c.4 0 .8.4.8.8s-.4.8-.8.8-.8-.4-.8-.8c0-.5.4-.8.8-.8zm-2.8 0c.4 0 .8.4.8.8s-.4.8-.8.8-.8-.4-.8-.8c0-.5.4-.8.8-.8zm7.2 15.8H5.3V9.1h19.4v12.8z"/><path id="XMLID_11_" class="st0" d="M8.1 18.6h.1c.1 0 .1 0 .2-.1l4-2.8c.1-.1.1-.2.1-.3v-1.2c0-.1 0-.2-.1-.3l-4-2.8c-.1-.1-.2-.1-.3 0-.1.1-.2.2-.2.3v1.4c0 .1 0 .2.1.2l2.2 1.7-2.2 2c-.1.1-.1.1-.1.2v1.4c0 .1 0 .2.2.3z"/><path id="XMLID_10_" class="st0" d="M12.1 18.6v.5c0 .3.2.5.5.5h5.2c.3 0 .5-.2.5-.5v-.5c0-.3-.2-.5-.5-.5h-5.2c-.3 0-.5.2-.5.5z"/></g></g></svg>