<svg id="Layer_1" xmlns="http://www.w3.org/2000/svg" viewBox="0 0 30 28"><style>.st0{fill:#fff}</style><g id="XMLID_50_"><path id="XMLID_63_" class="st0" d="M22.8 8.2c0 .1 0 .2.1.3.1 0 .2 0 .2-.1l3-2.1c.1-.1.2-.2.2-.4s0-.3-.1-.4c-.2-.3-.6-.3-.8-.1l-2.8 1.9c0 .1.1.2.1.3.1.2.1.4.1.6z"/><path id="XMLID_62_" class="st0" d="M26.7 11c-.1-.1-.2-.2-.4-.2l-3.3-.6v.3c0 .2 0 .3-.1.5 0 .1 0 .2-.1.3l3.3.6h.1c.3 0 .5-.2.6-.5 0-.1 0-.3-.1-.4z"/><path id="XMLID_61_" class="st0" d="M22.7 12.9c-.1-.1-.2-.2-.3-.2 0 .1-.1.2-.1.3-.1.2-.1.3-.2.5-.1.1-.1.2-.2.3l1.9 2.7c.1.1.2.2.4.2h.1c.1 0 .2 0 .3-.1.1-.1.2-.2.2-.4s0-.3-.1-.4l-2-2.9z"/><path id="XMLID_60_" class="st0" d="M3.9 6.3l3 2.1s.1 0 .1.1c0-.1 0-.2.1-.3 0-.2.1-.4.1-.5 0-.1.1-.2.1-.3l-2.7-2c-.3-.2-.6-.1-.8.1-.1.2-.1.3-.1.5 0 .1.1.3.2.3z"/><path id="XMLID_59_" class="st0" d="M7 11v-.8l-3.3.6c-.2 0-.3.1-.4.2-.1.1-.1.3-.1.4 0 .3.3.5.6.5h.1l3.2-.6s0-.2-.1-.3z"/><path id="XMLID_58_" class="st0" d="M7.6 13.1c0-.1-.1-.2-.1-.3-.1 0-.1.1-.2.2l-2.1 3c-.1.1-.1.3-.1.4 0 .2.1.3.2.4.1.1.2.1.3.1h.1c.2 0 .3-.1.4-.2L8 13.9c-.1-.1-.1-.2-.2-.3 0-.2-.1-.4-.2-.5z"/><path id="XMLID_55_" class="st0" d="M14.9 3c-3.7 0-6.7 3-6.7 6.6 0 1.9.8 3.9 2.1 5.4v.1c.4.5 1.5 2.1 1.5 3.2 0 .5.4.8.8.8H17c.1 0 .2 0 .3-.1.3-.1.5-.4.5-.8 0-.9.9-2.5 1.5-3.2l.1-.1c1.3-1.5 2-3.5 2-5.4C21.7 6 18.6 3 14.9 3zm3.4 11.1c0 .1-.1.1-.1.2-.4.5-1.4 1.9-1.7 3.3h-3c-.3-1.5-1.4-2.9-1.7-3.3 0 0 0-.1-.1-.1-1.1-1.3-1.8-3-1.8-4.4 0-2.7 2.3-5 5.1-5s5.1 2.2 5.1 5c-.1 1.3-.8 3-1.8 4.3z"/><path id="XMLID_54_" class="st0" d="M16.8 20.5h-3.7c-.4 0-.7.3-.7.7v2.6c0 .4.3.7.7.7h.6l.3.4c.1.1.3.2.5.2h.8c.2 0 .4-.1.5-.2l.3-.4h.6c.4 0 .7-.3.7-.7v-2.6c.1-.4-.2-.7-.6-.7z"/></g></svg>