<?xml version="1.0" encoding="utf-8"?>
<!-- Generator: Adobe Illustrator 19.0.0, SVG Export Plug-In . SVG Version: 6.00 Build 0)  -->
<svg version="1.1" id="Layer_1" xmlns="http://www.w3.org/2000/svg" xmlns:xlink="http://www.w3.org/1999/xlink" x="0px" y="0px"
	 viewBox="0 0 30 28" style="enable-background:new 0 0 30 28;" xml:space="preserve">
<style type="text/css">
	.st0{fill:#FFFFFF;}
</style>
<g id="XMLID_50_">
	<path id="XMLID_63_" class="st0" d="M22.8,8.2c0,0.1,0,0.2,0.1,0.3c0.1,0,0.2,0,0.2-0.1l3-2.1c0.1-0.1,0.2-0.2,0.2-0.4
		c0-0.2,0-0.3-0.1-0.4c-0.2-0.3-0.6-0.3-0.8-0.1l-2.8,1.9c0,0.1,0.1,0.2,0.1,0.3C22.8,7.8,22.8,8,22.8,8.2z"/>
	<path id="XMLID_62_" class="st0" d="M26.7,11c-0.1-0.1-0.2-0.2-0.4-0.2L23,10.2c0,0.1,0,0.2,0,0.3c0,0.2,0,0.3-0.1,0.5
		c0,0.1,0,0.2-0.1,0.3l3.3,0.6c0,0,0.1,0,0.1,0c0.3,0,0.5-0.2,0.6-0.5C26.8,11.3,26.8,11.1,26.7,11z"/>
	<path id="XMLID_61_" class="st0" d="M22.7,12.9c-0.1-0.1-0.2-0.2-0.3-0.2c0,0.1-0.1,0.2-0.1,0.3c-0.1,0.2-0.1,0.3-0.2,0.5
		c-0.1,0.1-0.1,0.2-0.2,0.3l1.9,2.7c0.1,0.1,0.2,0.2,0.4,0.2c0,0,0.1,0,0.1,0c0.1,0,0.2,0,0.3-0.1c0.1-0.1,0.2-0.2,0.2-0.4
		c0-0.2,0-0.3-0.1-0.4L22.7,12.9z"/>
	<path id="XMLID_60_" class="st0" d="M3.9,6.3l3,2.1c0,0,0.1,0,0.1,0.1c0-0.1,0-0.2,0.1-0.3c0-0.2,0.1-0.4,0.1-0.5
		c0-0.1,0.1-0.2,0.1-0.3L4.6,5.4C4.3,5.2,4,5.3,3.8,5.5C3.7,5.7,3.7,5.8,3.7,6C3.7,6.1,3.8,6.3,3.9,6.3z"/>
	<path id="XMLID_59_" class="st0" d="M7,11C7,10.9,7,10.7,7,10.5c0-0.1,0-0.2,0-0.3l-3.3,0.6c-0.2,0-0.3,0.1-0.4,0.2
		c-0.1,0.1-0.1,0.3-0.1,0.4c0,0.3,0.3,0.5,0.6,0.5c0,0,0.1,0,0.1,0l3.2-0.6C7.1,11.3,7.1,11.1,7,11z"/>
	<path id="XMLID_58_" class="st0" d="M7.6,13.1c0-0.1-0.1-0.2-0.1-0.3c-0.1,0-0.1,0.1-0.2,0.2l-2.1,3c-0.1,0.1-0.1,0.3-0.1,0.4
		c0,0.2,0.1,0.3,0.2,0.4c0.1,0.1,0.2,0.1,0.3,0.1c0,0,0.1,0,0.1,0c0.2,0,0.3-0.1,0.4-0.2L8,13.9c-0.1-0.1-0.1-0.2-0.2-0.3
		C7.8,13.4,7.7,13.2,7.6,13.1z"/>
	<path id="XMLID_55_" class="st0" d="M14.9,3c-3.7,0-6.7,3-6.7,6.6c0,1.9,0.8,3.9,2.1,5.4c0,0,0,0,0,0.1c0.4,0.5,1.5,2.1,1.5,3.2
		c0,0.5,0.4,0.8,0.8,0.8h4.4c0,0,0,0,0,0c0.1,0,0.2,0,0.3-0.1c0.3-0.1,0.5-0.4,0.5-0.8c0-0.9,0.9-2.5,1.5-3.2c0,0,0.1-0.1,0.1-0.1
		c1.3-1.5,2-3.5,2-5.4C21.7,6,18.6,3,14.9,3z M18.3,14.1c0,0.1-0.1,0.1-0.1,0.2c-0.4,0.5-1.4,1.9-1.7,3.3h-3
		c-0.3-1.5-1.4-2.9-1.7-3.3c0,0,0-0.1-0.1-0.1c-1.1-1.3-1.8-3-1.8-4.4c0-2.7,2.3-5,5.1-5c2.8,0,5.1,2.2,5.1,5
		C20,11.1,19.3,12.8,18.3,14.1z"/>
	<path id="XMLID_54_" class="st0" d="M16.8,20.5h-3.7c-0.4,0-0.7,0.3-0.7,0.7v2.6c0,0.4,0.3,0.7,0.7,0.7h0.6l0.3,0.4
		c0.1,0.1,0.3,0.2,0.5,0.2h0.8c0.2,0,0.4-0.1,0.5-0.2l0.3-0.4h0.6c0.4,0,0.7-0.3,0.7-0.7v-2.6C17.5,20.8,17.2,20.5,16.8,20.5z"/>
</g>
</svg>
