<svg xmlns="http://www.w3.org/2000/svg" viewBox="0 0 30 28"><style>.st0{fill:#fff}</style><g id="レイヤー_7"><g id="XMLID_27_"><g id="XMLID_55_"><path id="XMLID_56_" class="st0" d="M15 3C8.8 3 3.7 7.3 3.7 12.6c0 3.7 2.5 7 6.2 8.6l-1 2.2c-.1.1-.1.3-.1.5 0 .6.5 1.2 1.2 1.2.2 0 .4-.1.5-.1l4.4-2.7h.1c6.2 0 11.2-4.3 11.2-9.6 0-5.4-5-9.7-11.2-9.7zm-.3 16.1c-.7 0-1.3-.6-1.3-1.3 0-.7.6-1.3 1.3-1.3.7 0 1.3.6 1.3 1.3 0 .7-.6 1.3-1.3 1.3zm3.7-8c-.1.3-.3.5-.6.8-.2.2-.5.4-.7.6-.2.2-.5.3-.7.5-.2.2-.4.4-.5.6-.1.2-.2.5-.2.7v.3c0 .2-.1.4-.3.6-.2.2-.4.3-.7.3h-.1c-.3 0-.6-.1-.8-.3-.2-.2-.3-.4-.3-.6 0-.5.1-1 .2-1.4.1-.4.3-.7.5-.9.2-.3.4-.5.7-.7.2-.2.5-.4.7-.5.2-.2.4-.3.5-.5.1-.2.2-.4.2-.6 0-.4-.1-.7-.3-.9-.2-.2-.5-.3-.9-.3h-.7c-.2 0-.3.1-.5.2-.1.1-.3.2-.4.3-.1.1-.3.3-.4.5-.1.2-.3.3-.6.4-.3.1-.5.1-.8-.1-.3-.1-.4-.3-.5-.5-.1-.2-.1-.4 0-.6 0-.2.1-.4.3-.7.2-.3.4-.5.7-.7.3-.2.7-.4 1.2-.6.5-.2 1-.3 1.7-.3.6 0 1.2.1 1.6.3.4.2.8.4 1.1.8.3.3.5.7.6 1.1.1.4.2.8.2 1.2.1.3 0 .7-.2 1z"/></g></g></g></svg>