<svg id="レイヤー_8" xmlns="http://www.w3.org/2000/svg" viewBox="0 0 30 28"><style>.st0{fill:#FFF}</style><g id="XMLID_20_"><path id="XMLID_24_" class="st0" d="M3.4 20.5v-13c0-.8.7-1.5 1.5-1.5h20.3c.8 0 1.5.7 1.5 1.5v13c0 .8-.7 1.5-1.5 1.5H4.9c-.8-.1-1.5-.7-1.5-1.5zm21.9-13c0-.1-.1-.2-.2-.2H4.9c-.1 0-.2.1-.2.2v13c0 .1.1.2.2.2h20.3c.1 0 .2-.1.2-.2v-13h-.1z"/><path id="XMLID_21_" class="st0" d="M14.9 16.5c-.2 0-.3-.1-.4-.2L5.9 9.5c-.3-.2-.4-.7-.1-1 .2-.3.7-.4 1-.1l8.1 6.5 8.3-6.5c.3-.2.7-.2 1 .1.2.3.2.7-.1 1l-8.8 6.8c-.1.1-.3.2-.4.2z"/></g></svg>