<?xml version="1.0" encoding="utf-8"?>
<!-- Generator: Adobe Illustrator 19.0.0, SVG Export Plug-In . SVG Version: 6.00 Build 0)  -->
<svg version="1.1" xmlns="http://www.w3.org/2000/svg" xmlns:xlink="http://www.w3.org/1999/xlink" x="0px" y="0px"
	 viewBox="0 0 30 28" style="enable-background:new 0 0 30 28;" xml:space="preserve">
<style type="text/css">
	.st0{fill:#FFFFFF;}
</style>
<g id="レイヤー_3">
</g>
<g id="レイヤー_5">
	<g id="XMLID_30_">
		<path id="XMLID_33_" class="st0" d="M25,14.9c-0.7,0-1.2,0.6-1.2,1.2V22H6.2v-5.9c0-0.7-0.6-1.2-1.2-1.2c-0.7,0-1.2,0.6-1.2,1.2
			v7.2c0,0.7,0.6,1.2,1.2,1.2h20c0.7,0,1.2-0.6,1.2-1.2v-7.2C26.3,15.4,25.7,14.9,25,14.9z"/>
		<path id="XMLID_31_" class="st0" d="M14.5,19c0.1,0.2,0.3,0.3,0.5,0.3c0.2,0,0.4-0.1,0.5-0.3l4.1-5.6c0.1-0.2,0.2-0.4,0.1-0.6
			c-0.1-0.2-0.3-0.3-0.5-0.3h-2.7V4.9c0-0.8-0.6-1.4-1.4-1.4c-0.8,0-1.4,0.6-1.4,1.4v7.5h-2.7c-0.2,0-0.4,0.1-0.5,0.3
			c-0.1,0.2-0.1,0.5,0,0.6L14.5,19z"/>
	</g>
</g>
</svg>
