<?xml version="1.0" encoding="utf-8"?>
<!-- Generator: Adobe Illustrator 19.0.0, SVG Export Plug-In . SVG Version: 6.00 Build 0)  -->
<svg version="1.1" xmlns="http://www.w3.org/2000/svg" xmlns:xlink="http://www.w3.org/1999/xlink" x="0px" y="0px"
	 viewBox="0 0 30 28" style="enable-background:new 0 0 30 28;" xml:space="preserve">
<style type="text/css">
	.st0{fill:#FFFFFF;}
</style>
<g id="レイヤー_3">
</g>
<g id="レイヤー_7">
	<g id="XMLID_27_">
		<g id="XMLID_55_">
			<path id="XMLID_56_" class="st0" d="M15,3C8.8,3,3.7,7.3,3.7,12.6c0,3.7,2.5,7,6.2,8.6l-1,2.2c-0.1,0.1-0.1,0.3-0.1,0.5
				c0,0.6,0.5,1.2,1.2,1.2c0.2,0,0.4-0.1,0.5-0.1l0,0l4.4-2.7c0,0,0,0,0.1,0c6.2,0,11.2-4.3,11.2-9.6C26.2,7.3,21.2,3,15,3z
				 M14.7,19.1c-0.7,0-1.3-0.6-1.3-1.3c0-0.7,0.6-1.3,1.3-1.3c0.7,0,1.3,0.6,1.3,1.3C16,18.5,15.4,19.1,14.7,19.1z M18.4,11.1
				c-0.1,0.3-0.3,0.5-0.6,0.8c-0.2,0.2-0.5,0.4-0.7,0.6c-0.2,0.2-0.5,0.3-0.7,0.5c-0.2,0.2-0.4,0.4-0.5,0.6
				c-0.1,0.2-0.2,0.5-0.2,0.7v0.3c0,0.2-0.1,0.4-0.3,0.6c-0.2,0.2-0.4,0.3-0.7,0.3l-0.1,0c-0.3,0-0.6-0.1-0.8-0.3
				c-0.2-0.2-0.3-0.4-0.3-0.6c0-0.5,0.1-1,0.2-1.4c0.1-0.4,0.3-0.7,0.5-0.9c0.2-0.3,0.4-0.5,0.7-0.7c0.2-0.2,0.5-0.4,0.7-0.5
				c0.2-0.2,0.4-0.3,0.5-0.5c0.1-0.2,0.2-0.4,0.2-0.6c0-0.4-0.1-0.7-0.3-0.9c-0.2-0.2-0.5-0.3-0.9-0.3c-0.3,0-0.5,0-0.7,0
				c-0.2,0-0.3,0.1-0.5,0.2c-0.1,0.1-0.3,0.2-0.4,0.3c-0.1,0.1-0.3,0.3-0.4,0.5c-0.1,0.2-0.3,0.3-0.6,0.4c-0.3,0.1-0.5,0.1-0.8-0.1
				c-0.3-0.1-0.4-0.3-0.5-0.5c-0.1-0.2-0.1-0.4,0-0.6c0-0.2,0.1-0.4,0.3-0.7c0.2-0.3,0.4-0.5,0.7-0.7c0.3-0.2,0.7-0.4,1.2-0.6
				c0.5-0.2,1-0.3,1.7-0.3c0.6,0,1.2,0.1,1.6,0.3c0.4,0.2,0.8,0.4,1.1,0.8c0.3,0.3,0.5,0.7,0.6,1.1c0.1,0.4,0.2,0.8,0.2,1.2
				C18.7,10.4,18.6,10.8,18.4,11.1z"/>
		</g>
	</g>
</g>
</svg>
