<?xml version="1.0" encoding="utf-8"?>
<!-- Generator: Adobe Illustrator 19.0.0, SVG Export Plug-In . SVG Version: 6.00 Build 0)  -->
<svg version="1.1" xmlns="http://www.w3.org/2000/svg" xmlns:xlink="http://www.w3.org/1999/xlink" x="0px" y="0px"
	 viewBox="0 0 30 28" style="enable-background:new 0 0 30 28;" xml:space="preserve">
<style type="text/css">
	.st0{fill:#FFFFFF;}
</style>
<g id="レイヤー_3">
</g>
<g id="Layer_1">
	<g id="XMLID_22_">
		<polygon id="XMLID_27_" class="st0" points="22.5,8.6 23.8,8.1 24.9,6.6 23.4,5.1 21.9,6.2 21.4,7.5 17.6,11.3 18.8,12.3 		"/>
		<path id="XMLID_24_" class="st0" d="M24.8,19l-6.9-6l-0.2-0.2l-2-1.7c0.2-1.2,0.7-4.3-1.1-6c-1.1-1.1-2.7-1.8-4.3-1.8
			c-0.4,0-0.8,0-1.2,0.1C9,3.4,8.9,3.5,8.9,3.6c0,0.1,0,0.2,0.1,0.3l2.6,2.6L12.1,9L10,11.1l-2.5-0.5L4.9,8C4.8,7.9,4.7,7.9,4.6,7.9
			C4.5,7.9,4.4,8,4.4,8.1c-0.4,2,0.2,4,1.7,5.5c0.9,0.9,2.2,1.3,3.8,1.3h0c0.7,0,1.4-0.1,2.2-0.2l7.9,9.1c0.7,0.7,1.5,1,2.4,1
			c0.9,0,1.8-0.4,2.4-1C26.1,22.4,26.1,20.3,24.8,19z M23,22c-0.3,0.3-0.9,0.3-1.2,0l0,0c-0.3-0.3-0.3-0.9,0-1.2
			c0.3-0.3,0.9-0.3,1.2,0h0C23.3,21.1,23.3,21.6,23,22z"/>
		<path id="XMLID_23_" class="st0" d="M11.6,16.3c-0.3-0.3-0.8-0.3-1.1,0l-5.1,5.1c-0.3,0.3-0.3,0.8,0,1.1l2,2
			c0.3,0.3,0.8,0.3,1.1,0l4.9-4.9c0.3-0.3,0.3-0.8,0-1.1L11.6,16.3z"/>
	</g>
</g>
</svg>
