<svg xmlns="http://www.w3.org/2000/svg" viewBox="0 0 30 28"><style>.st0{fill:#FFF}</style><g id="レイヤー_5"><g id="XMLID_30_"><path id="XMLID_33_" class="st0" d="M25 14.9c-.7 0-1.2.6-1.2 1.2V22H6.2v-5.9c0-.7-.6-1.2-1.2-1.2-.7 0-1.2.6-1.2 1.2v7.2c0 .7.6 1.2 1.2 1.2h20c.7 0 1.2-.6 1.2-1.2v-7.2c.1-.7-.5-1.2-1.2-1.2z"/><path id="XMLID_31_" class="st0" d="M14.5 19c.1.2.3.3.5.3s.4-.1.5-.3l4.1-5.6c.1-.2.2-.4.1-.6-.1-.2-.3-.3-.5-.3h-2.7V4.9c0-.8-.6-1.4-1.4-1.4-.8 0-1.4.6-1.4 1.4v7.5H11c-.2 0-.4.1-.5.3-.1.2-.1.5 0 .6l4 5.7z"/></g></g></svg>