<?xml version="1.0" encoding="utf-8"?>
<!-- Generator: Adobe Illustrator 19.0.0, SVG Export Plug-In . SVG Version: 6.00 Build 0)  -->
<svg version="1.1" id="レイヤー_9" xmlns="http://www.w3.org/2000/svg" xmlns:xlink="http://www.w3.org/1999/xlink" x="0px"
	 y="0px" viewBox="0 0 30 28" style="enable-background:new 0 0 30 28;" xml:space="preserve">
<style type="text/css">
	.st0{fill-rule:evenodd;clip-rule:evenodd;fill:#FFFFFF;}
</style>
<path id="XMLID_38_" class="st0" d="M15,2.8C8.6,2.8,3.5,7.9,3.5,14.3c0,5.1,3.3,9.4,7.9,10.9c0.6,0.1,0.8-0.2,0.8-0.6
	c0-0.3,0-1,0-2c-3.2,0.7-3.9-1.5-3.9-1.5C7.7,19.8,7,19.5,7,19.5c-1-0.7,0.1-0.7,0.1-0.7c1.2,0.1,1.8,1.2,1.8,1.2
	c1,1.8,2.7,1.2,3.3,1c0.1-0.7,0.4-1.2,0.7-1.5c-2.6-0.3-5.2-1.3-5.2-5.7c0-1.3,0.4-2.3,1.2-3.1c-0.1-0.3-0.5-1.5,0.1-3
	c0,0,1-0.3,3.2,1.2C13,8.5,14,8.3,15,8.3c1,0,2,0.1,2.9,0.4C20.1,7.2,21,7.6,21,7.6c0.6,1.6,0.2,2.8,0.1,3c0.7,0.8,1.2,1.8,1.2,3.1
	c0,4.4-2.7,5.4-5.3,5.7c0.4,0.4,0.8,1.1,0.8,2.1c0,1.5,0,2.8,0,3.2c0,0.3,0.2,0.7,0.8,0.6c4.6-1.5,7.9-5.8,7.9-10.9
	C26.5,7.9,21.4,2.8,15,2.8z"/>
</svg>
