<?xml version="1.0" encoding="iso-8859-1"?>
<!-- Generator: Adobe Illustrator 16.0.0, SVG Export Plug-In . SVG Version: 6.00 Build 0)  -->
<!DOCTYPE svg PUBLIC "-//W3C//DTD SVG 1.1//EN" "http://www.w3.org/Graphics/SVG/1.1/DTD/svg11.dtd">
<svg xmlns="http://www.w3.org/2000/svg" xmlns:xlink="http://www.w3.org/1999/xlink" version="1.1" id="Capa_1" x="0px" y="0px" width="512px" height="512px" viewBox="0 0 25 25" style="enable-background:new 0 0 25 25;" xml:space="preserve">
<g>
	<g>
		<path d="M22,0H3C1.35,0,0,1.35,0,3v19c0,1.65,1.35,3,3,3h19c1.65,0,3-1.35,3-3V3C25,1.35,23.65,0,22,0z M13.042,2.281l0.399,2.182    c0.119,0.629,0.229,1.313,0.313,1.848h0.017c0.086-0.575,0.211-1.21,0.345-1.862l0.446-2.167h1.272l0.425,2.229    c0.118,0.622,0.204,1.188,0.282,1.774h0.017c0.078-0.588,0.195-1.208,0.307-1.837l0.431-2.167h1.218l-1.367,5.292h-1.295    l-0.447-2.277c-0.103-0.533-0.188-1.027-0.252-1.631h-0.016c-0.094,0.596-0.18,1.098-0.306,1.631l-0.502,2.277h-1.312    l-1.256-5.292H13.042z M7.914,2.281h3.266v0.981H9.115v1.1h1.948v0.974H9.115v1.255h2.175v0.982H7.915L7.914,2.281L7.914,2.281z     M2.493,2.281H3.89L4.989,4.22c0.314,0.557,0.628,1.218,0.864,1.814h0.023C5.797,5.335,5.774,4.621,5.774,3.827V2.28h1.099v5.292    H5.617L4.487,5.53c-0.314-0.563-0.66-1.247-0.918-1.866L3.545,3.671c0.032,0.697,0.048,1.443,0.048,2.308v1.594H2.494L2.493,2.281    L2.493,2.281z M22.5,21.5c0,0.55-0.45,1-1,1h-18c-0.55,0-1-0.45-1-1v-12h20V21.5z M20.372,7.651c-0.604,0-1.201-0.157-1.5-0.321    l0.243-0.99c0.322,0.167,0.816,0.329,1.328,0.329c0.548,0,0.84-0.227,0.84-0.571c0-0.329-0.251-0.52-0.887-0.747    c-0.879-0.306-1.453-0.792-1.453-1.561c0-0.904,0.754-1.595,2.002-1.595c0.596,0,1.035,0.127,1.351,0.268l-0.267,0.964    c-0.213-0.101-0.59-0.249-1.109-0.249c-0.518,0-0.768,0.235-0.768,0.51c0,0.338,0.298,0.485,0.98,0.746    c0.934,0.344,1.374,0.83,1.374,1.578C22.507,6.897,21.824,7.651,20.372,7.651z" fill="#FFFFFF"/>
		<path d="M3.879,11.727h7.554c0.275,0,0.5-0.188,0.5-0.416c0-0.229-0.225-0.417-0.5-0.417H3.879c-0.275,0-0.5,0.188-0.5,0.417    C3.379,11.539,3.604,11.727,3.879,11.727z" fill="#FFFFFF"/>
		<path d="M3.879,13.604h7.554c0.275,0,0.5-0.188,0.5-0.416c0-0.229-0.225-0.418-0.5-0.418H3.879c-0.275,0-0.5,0.188-0.5,0.418    C3.379,13.415,3.604,13.604,3.879,13.604z" fill="#FFFFFF"/>
		<path d="M3.879,15.479h7.554c0.275,0,0.5-0.188,0.5-0.416s-0.225-0.416-0.5-0.416H3.879c-0.275,0-0.5,0.188-0.5,0.416    S3.604,15.479,3.879,15.479z" fill="#FFFFFF"/>
		<path d="M3.879,17.354h7.554c0.275,0,0.5-0.188,0.5-0.416s-0.225-0.416-0.5-0.416H3.879c-0.275,0-0.5,0.188-0.5,0.416    C3.379,17.167,3.604,17.354,3.879,17.354z" fill="#FFFFFF"/>
		<path d="M3.879,19.23h7.554c0.275,0,0.5-0.188,0.5-0.416c0-0.229-0.225-0.418-0.5-0.418H3.879c-0.275,0-0.5,0.188-0.5,0.418    C3.379,19.043,3.604,19.23,3.879,19.23z" fill="#FFFFFF"/>
		<path d="M3.879,21.105h7.554c0.275,0,0.5-0.188,0.5-0.416s-0.225-0.416-0.5-0.416H3.879c-0.275,0-0.5,0.188-0.5,0.416    C3.379,20.919,3.604,21.105,3.879,21.105z" fill="#FFFFFF"/>
		<path d="M13.566,11.727h7.555c0.275,0,0.5-0.188,0.5-0.416c0-0.229-0.225-0.417-0.5-0.417h-7.555c-0.274,0-0.5,0.188-0.5,0.417    C13.066,11.539,13.292,11.727,13.566,11.727z" fill="#FFFFFF"/>
		<path d="M13.566,13.604h7.555c0.275,0,0.5-0.188,0.5-0.416c0-0.229-0.225-0.418-0.5-0.418h-7.555c-0.274,0-0.5,0.188-0.5,0.418    C13.066,13.415,13.292,13.604,13.566,13.604z" fill="#FFFFFF"/>
		<path d="M13.566,15.479h7.555c0.275,0,0.5-0.188,0.5-0.416s-0.225-0.416-0.5-0.416h-7.555c-0.274,0-0.5,0.188-0.5,0.416    S13.292,15.479,13.566,15.479z" fill="#FFFFFF"/>
		<path d="M13.566,17.354h7.555c0.275,0,0.5-0.188,0.5-0.416s-0.225-0.416-0.5-0.416h-7.555c-0.274,0-0.5,0.188-0.5,0.416    C13.066,17.167,13.292,17.354,13.566,17.354z" fill="#FFFFFF"/>
		<path d="M13.566,19.23h7.555c0.275,0,0.5-0.188,0.5-0.416c0-0.229-0.225-0.418-0.5-0.418h-7.555c-0.274,0-0.5,0.188-0.5,0.418    C13.066,19.043,13.292,19.23,13.566,19.23z" fill="#FFFFFF"/>
		<path d="M13.566,21.105h7.555c0.275,0,0.5-0.188,0.5-0.416s-0.225-0.416-0.5-0.416h-7.555c-0.274,0-0.5,0.188-0.5,0.416    C13.066,20.919,13.292,21.105,13.566,21.105z" fill="#FFFFFF"/>
	</g>
</g>
<g>
</g>
<g>
</g>
<g>
</g>
<g>
</g>
<g>
</g>
<g>
</g>
<g>
</g>
<g>
</g>
<g>
</g>
<g>
</g>
<g>
</g>
<g>
</g>
<g>
</g>
<g>
</g>
<g>
</g>
</svg>
