<?xml version="1.0" encoding="UTF-8"?>
<svg width="15px" height="15px" viewBox="0 0 15 15" version="1.1" xmlns="http://www.w3.org/2000/svg" xmlns:xlink="http://www.w3.org/1999/xlink">
    <!-- Generator: Sketch 43.2 (39069) - http://www.bohemiancoding.com/sketch -->
    <title>search-input-icon</title>
    <desc>Created with Sketch.</desc>
    <defs></defs>
    <g id="Page-1" stroke="none" stroke-width="1" fill="none" fill-rule="evenodd">
        <g id="案2" transform="translate(-522.000000, -32.000000)" fill="#E6361B">
            <g id="searchbar" transform="translate(513.000000, 24.000000)">
                <path d="M19.5142565,13.5340197 L18.8564486,13.5340197 L18.6277899,13.7610214 C19.4355515,14.7029956 19.9268362,15.9241654 19.9268362,17.26215 C19.9268362,20.2363695 17.5159786,22.6472271 14.5417591,22.6472271 C11.5675396,22.6472271 9.15668203,20.2363695 9.15668203,17.26215 C9.15668203,14.2879305 11.5675396,11.8770729 14.5417591,11.8770729 C15.8797437,11.8770729 17.100085,12.3675291 18.0420592,13.1744622 L18.2707179,12.9474605 L18.2707179,12.2913096 L22.411428,8.15639883 L23.6466818,9.39165267 L19.5142565,13.5340197 L19.5142565,13.5340197 Z M14.5417591,13.5340197 C12.4821743,13.5340197 10.8136288,15.2025651 10.8136288,17.26215 C10.8136288,19.3209064 12.4821743,20.9902803 14.5417591,20.9902803 C16.6005155,20.9902803 18.2698894,19.3209064 18.2698894,17.26215 C18.2698894,15.2025651 16.6005155,13.5340197 14.5417591,13.5340197 L14.5417591,13.5340197 Z" id="search-input-icon" transform="translate(16.401682, 15.401813) scale(1, -1) translate(-16.401682, -15.401813) "></path>
            </g>
        </g>
    </g>
</svg>