<svg id="レイヤー_9" xmlns="http://www.w3.org/2000/svg" viewBox="0 0 30 28"><style>.st0{fill-rule:evenodd;clip-rule:evenodd;fill:#fff}</style><path id="XMLID_38_" class="st0" d="M15 2.8C8.6 2.8 3.5 7.9 3.5 14.3c0 5.1 3.3 9.4 7.9 10.9.6.1.8-.2.8-.6v-2c-3.2.7-3.9-1.5-3.9-1.5-.6-1.3-1.3-1.6-1.3-1.6-1-.7.1-.7.1-.7 1.2.1 1.8 1.2 1.8 1.2 1 1.8 2.7 1.2 3.3 1 .1-.7.4-1.2.7-1.5-2.6-.3-5.2-1.3-5.2-5.7 0-1.3.4-2.3 1.2-3.1-.1-.3-.5-1.5.1-3 0 0 1-.3 3.2 1.2.8-.4 1.8-.6 2.8-.6 1 0 2 .1 2.9.4C20.1 7.2 21 7.6 21 7.6c.6 1.6.2 2.8.1 3 .7.8 1.2 1.8 1.2 3.1 0 4.4-2.7 5.4-5.3 5.7.4.4.8 1.1.8 2.1v3.2c0 .3.2.7.8.6 4.6-1.5 7.9-5.8 7.9-10.9 0-6.5-5.1-11.6-11.5-11.6z"/></svg>