<svg xmlns="http://www.w3.org/2000/svg" width="18" height="18" viewBox="0 0 18 18">
  <defs>
    <style>
      .cls-1 {
        mix-blend-mode: luminosity;
      }

      .cls-2 {
        fill: #fff;
        fill-rule: evenodd;
      }
    </style>
  </defs>
  <g id="icn_beta_1.svg" class="cls-1">
    <path id="Circle" class="cls-2" d="M1155,227a9,9,0,1,1-9,9A9,9,0,0,1,1155,227Zm0,1a8,8,0,1,1-8,8A8,8,0,0,1,1155,228Z" transform="translate(-1146 -227)"/>
    <path id="ß_" data-name="ß " class="cls-2" d="M1154.39,239.513l-0.33.8a4.07,4.07,0,0,0,2.14.49,2.388,2.388,0,0,0,2.7-2.619,2.277,2.277,0,0,0-2.45-2.536,1.974,1.974,0,0,0,1.8-2.2,2.609,2.609,0,0,0-2.93-2.857c-2.14,0-2.99,1.2-2.99,3.782v6.261h0.98v-6.261c0-1.807.31-2.9,2.01-2.9,1.51,0,1.95.784,1.95,2.1,0,1.415-.94,1.611-1.96,1.765l0.11,0.827h0.16c1.5,0,2.3.6,2.3,1.961,0,1.288-.55,1.807-1.88,1.807A3.586,3.586,0,0,1,1154.39,239.513Z" transform="translate(-1146 -227)"/>
  </g>
</svg>
