<svg xmlns="http://www.w3.org/2000/svg" width="18" height="18" viewBox="0 0 18 18"><defs><style>.cls-1{mix-blend-mode:luminosity}.cls-2{fill:#fff;fill-rule:evenodd}</style></defs><g id="icn_beta_1.svg" class="cls-1"><path id="Circle" class="cls-2" d="M9 0a9 9 0 1 1-9 9 9 9 0 0 1 9-9zm0 1a8 8 0 1 1-8 8 8 8 0 0 1 8-8z"/><path id="ß_" data-name="ß" class="cls-2" d="M8.39 12.513l-.33.8a4.07 4.07 0 0 0 2.14.49 2.388 2.388 0 0 0 2.7-2.62 2.277 2.277 0 0 0-2.45-2.535 1.974 1.974 0 0 0 1.8-2.2A2.61 2.61 0 0 0 9.32 3.59c-2.14 0-2.99 1.2-2.99 3.783v6.26h.98v-6.26c0-1.807.31-2.9 2.01-2.9 1.51 0 1.95.784 1.95 2.1 0 1.415-.94 1.61-1.96 1.765l.11.827h.16c1.5 0 2.3.6 2.3 1.96 0 1.29-.55 1.808-1.88 1.808a3.586 3.586 0 0 1-1.61-.42z"/></g></svg>