<?xml version="1.0" encoding="utf-8"?>
<!-- Generator: Adobe Illustrator 19.0.0, SVG Export Plug-In . SVG Version: 6.00 Build 0)  -->
<svg version="1.1" id="レイヤー_8" xmlns="http://www.w3.org/2000/svg" xmlns:xlink="http://www.w3.org/1999/xlink" x="0px"
	 y="0px" viewBox="0 0 30 28" style="enable-background:new 0 0 30 28;" xml:space="preserve">
<style type="text/css">
	.st0{fill:#FFFFFF;}
</style>
<g id="XMLID_20_">
	<path id="XMLID_24_" class="st0" d="M3.4,20.5v-13c0-0.8,0.7-1.5,1.5-1.5h20.3c0.8,0,1.5,0.7,1.5,1.5v13c0,0.8-0.7,1.5-1.5,1.5H4.9
		C4.1,21.9,3.4,21.3,3.4,20.5L3.4,20.5z M25.3,7.5c0-0.1-0.1-0.2-0.2-0.2H4.9c-0.1,0-0.2,0.1-0.2,0.2v13c0,0.1,0.1,0.2,0.2,0.2h20.3
		c0.1,0,0.2-0.1,0.2-0.2V7.5L25.3,7.5z"/>
	<path id="XMLID_21_" class="st0" d="M14.9,16.5c-0.2,0-0.3-0.1-0.4-0.2L5.9,9.5c-0.3-0.2-0.4-0.7-0.1-1c0.2-0.3,0.7-0.4,1-0.1
		l8.1,6.5l8.3-6.5c0.3-0.2,0.7-0.2,1,0.1c0.2,0.3,0.2,0.7-0.1,1l-8.8,6.8C15.2,16.4,15,16.5,14.9,16.5L14.9,16.5z"/>
</g>
</svg>
