<?xml version="1.0" encoding="utf-8"?>
<!-- Generator: Adobe Illustrator 19.0.0, SVG Export Plug-In . SVG Version: 6.00 Build 0)  -->
<svg version="1.1" xmlns="http://www.w3.org/2000/svg" xmlns:xlink="http://www.w3.org/1999/xlink" x="0px" y="0px"
	 viewBox="0 0 30 28" style="enable-background:new 0 0 30 28;" xml:space="preserve">
<style type="text/css">
	.st0{fill:#FFFFFF;}
</style>
<g id="レイヤー_1">
</g>
<g id="Layer_1">
	<path id="XMLID_32_" class="st0" d="M27,6.6c-0.9,0.4-1.8,0.7-2.8,0.8c1-0.6,1.8-1.6,2.2-2.7c-1,0.6-2,1-3.1,1.2
		c-0.9-1-2.2-1.6-3.6-1.6c-2.7,0-4.9,2.2-4.9,4.9c0,0.4,0,0.8,0.1,1.1c-4.1-0.2-7.7-2.2-10.1-5.1C4.2,5.9,4,6.7,4,7.6
		c0,1.7,0.9,3.2,2.2,4.1c-0.8,0-1.6-0.2-2.2-0.6c0,0,0,0,0,0.1c0,2.4,1.7,4.4,3.9,4.8c-0.4,0.1-0.8,0.2-1.3,0.2
		c-0.3,0-0.6,0-0.9-0.1c0.6,2,2.4,3.4,4.6,3.4c-1.7,1.3-3.8,2.1-6.1,2.1c-0.4,0-0.8,0-1.2-0.1c2.2,1.4,4.8,2.2,7.5,2.2
		c9.1,0,14-7.5,14-14c0-0.2,0-0.4,0-0.6C25.5,8.4,26.3,7.5,27,6.6z"/>
</g>
</svg>
