<?xml version="1.0" encoding="utf-8"?>
<svg xmlns="http://www.w3.org/2000/svg"
	xmlns:xlink="http://www.w3.org/1999/xlink"
	width="30px" height="30px" viewBox="0 0 30 30">
<path fillRule="evenodd" d="M 17.74 15C 17.74 15 29.26 26.52 29.26 26.52 30.02 27.28 30.02 28.52 29.26 29.28 28.5 30.04 27.26 30.04 26.5 29.28 26.5 29.28 14.98 17.76 14.98 17.76 14.98 17.76 3.59 29.14 3.59 29.14 2.84 29.9 1.61 29.9 0.86 29.14 0.1 28.39 0.1 27.16 0.86 26.41 0.86 26.41 12.24 15.02 12.24 15.02 12.24 15.02 0.72 3.5 0.72 3.5-0.04 2.74-0.04 1.5 0.72 0.74 1.48-0.02 2.72-0.02 3.48 0.74 3.48 0.74 15 12.26 15 12.26 15 12.26 26.41 0.86 26.41 0.86 27.16 0.1 28.39 0.1 29.14 0.86 29.9 1.61 29.9 2.84 29.14 3.59 29.14 3.59 17.74 15 17.74 15Z" fill="rgb(255,255,255)"/></svg>