<svg xmlns="http://www.w3.org/2000/svg" viewBox="0 0 26 20"><style>.st0{fill:#e23337}.st1{fill:#b63032}</style><g id="レイヤー_1"><path class="st0" d="M4 3.1l1.4 11.7L13 19v-7.4h-2.4l-1.1 2.8H7.4L13 2.1V0L4 3.1z"/><path class="st0" d="M13 9.9V6l-1.6 3.9H13z"/><path class="st1" d="M13 0v2.1l5.5 12.3h-2.1l-1.1-2.8H13V19l7.6-4.1L22 3.1 13 0z"/><path class="st1" d="M14.6 9.9L13 6v3.9h1.6z"/></g><path class="st1" d="M21.4 19v-1.2c.6-.6 3-2.6 3-3.9 0-.6-.6-.9-1.1-.9-.6 0-1.1.3-1.6.6l-.1-1.2c.6-.3 1.4-.5 2.1-.5 1.3 0 2.2.7 2.2 2 0 1.5-1.5 2.8-2.6 4H26V19h-4.6z" id="_x32__outlined"/></svg>