<svg id="Layer_1" xmlns="http://www.w3.org/2000/svg" viewBox="0 0 52 52"><style>.st0{fill:#00d8ff}</style><circle class="st0" cx="26" cy="27.6" r="4.3"/><path class="st0" d="M26 37.4c-6 0-11.3-.7-15.2-2.1C5.4 33.5 2 30.5 2 27.6c0-2.8 3.1-5.6 8.3-7.4 4.3-1.5 9.8-2.3 15.7-2.3 5.7 0 11.2.8 15.5 2.3 5.3 1.8 8.5 4.6 8.5 7.5 0 2.9-3.5 5.9-9.1 7.8-4 1.2-9.3 1.9-14.9 1.9zm0-17.5c-5.5 0-11 .8-15 2.2-4.8 1.7-7 4-7 5.5 0 1.6 2.3 4.1 7.4 5.8 3.7 1.3 8.8 1.9 14.6 1.9 5.4 0 10.5-.7 14.3-1.9 5.3-1.7 7.7-4.3 7.7-5.8s-2.2-3.8-7.2-5.5c-4-1.4-9.3-2.2-14.8-2.2z"/><path class="st0" d="M16.3 49c-.9 0-1.6-.2-2.3-.6-2.5-1.4-3.3-5.5-2.3-10.9.8-4.4 2.9-9.7 5.8-14.7s6.3-9.3 9.7-12.3c3.1-2.7 6.1-4.2 8.5-4.2.8 0 1.6.2 2.2.5 2.6 1.5 3.4 6 2.2 11.8-.8 4.1-2.9 9-5.7 13.9-3 5.2-6.3 9.4-9.4 12.2-3 2.7-6.2 4.3-8.7 4.3zM35.8 8.3c-1.8 0-4.5 1.4-7.2 3.7-3.2 2.8-6.5 7-9.3 11.7-2.8 4.8-4.8 9.9-5.6 14.1-.9 5 0 8 1.3 8.8.3.2.8.3 1.3.3 2 0 4.8-1.4 7.5-3.8 3-2.6 6.1-6.6 9-11.6 2.7-4.7 4.7-9.4 5.5-13.3 1.1-5.4.2-8.8-1.2-9.6-.5-.2-.9-.3-1.3-.3z"/><path class="st0" d="M35.7 49c-2.4 0-5.3-1.4-8.4-4-3.4-3-6.9-7.4-9.9-12.4-2.9-5-4.9-10.1-5.8-14.5-1.1-5.5-.3-9.7 2.2-11.1.6-.4 1.4-.6 2.3-.6 2.5 0 5.8 1.6 9 4.5 3.1 2.8 6.4 7 9.2 11.9 3 5.2 5 10.1 5.8 14.2 1.1 5.6.2 10-2.3 11.5-.5.3-1.2.5-2.1.5zM16.2 8.4c-.5 0-.9.1-1.2.3-1.3.7-2.2 3.9-1.2 9 .8 4.2 2.8 9.1 5.5 13.9 2.8 4.8 6.2 9.1 9.4 11.9 2.6 2.3 5.2 3.5 7 3.5.5 0 .9-.1 1.2-.3 1.4-.8 2.4-4.1 1.3-9.3-.8-3.9-2.7-8.6-5.6-13.6-2.7-4.7-5.9-8.7-8.8-11.4-2.8-2.5-5.6-4-7.6-4z"/></svg>