<?xml version="1.0" encoding="utf-8"?>
<!-- Generator: Adobe Illustrator 20.0.0, SVG Export Plug-In . SVG Version: 6.00 Build 0)  -->
<svg version="1.1" xmlns="http://www.w3.org/2000/svg" xmlns:xlink="http://www.w3.org/1999/xlink" x="0px" y="0px"
	 viewBox="0 0 26 20" style="enable-background:new 0 0 26 20;" xml:space="preserve">
<style type="text/css">
	.st0{fill:#E23337;}
	.st1{fill:#B63032;}
</style>
<g id="レイヤー_1">
	<g>
		<path class="st0" d="M4,3.1l1.4,11.7L13,19v-7.4h-2.4l-1.1,2.8l-2.1,0L13,2.1l0,0V0L4,3.1z"/>
		<path class="st0" d="M13,9.9V6l-1.6,3.9H13z"/>
	</g>
	<g>
		<path class="st1" d="M13,0v2.1l0,0l5.5,12.3l-2.1,0l-1.1-2.8H13V19l7.6-4.1L22,3.1L13,0z"/>
		<path class="st1" d="M14.6,9.9L13,6v3.9H14.6z"/>
	</g>
</g>
<g id="_x32__outlined">
	<g>
		<path class="st1" d="M21.4,19v-1.2c0.6-0.6,3-2.6,3-3.9c0-0.6-0.6-0.9-1.1-0.9c-0.6,0-1.1,0.3-1.6,0.6l-0.1-1.2
			c0.6-0.3,1.4-0.5,2.1-0.5c1.3,0,2.2,0.7,2.2,2c0,1.5-1.5,2.8-2.6,4H26V19H21.4z"/>
	</g>
</g>
</svg>
