<?xml version="1.0" encoding="utf-8"?>
<!-- Generator: Adobe Illustrator 20.0.0, SVG Export Plug-In . SVG Version: 6.00 Build 0)  -->
<svg version="1.1" id="Layer_1" xmlns="http://www.w3.org/2000/svg" xmlns:xlink="http://www.w3.org/1999/xlink" x="0px" y="0px"
	 viewBox="0 0 52 52" style="enable-background:new 0 0 52 52;" xml:space="preserve">
<style type="text/css">
	.st0{fill:#B2B2B2;}
	.st1{fill:#B52E31;}
	.st2{fill:#E23237;}
	.st3{fill:#F2F2F2;}
</style>
<path class="st0" d="M25.9,6L5.2,13.3l3.3,27.1L26,50l17.5-9.7l3.3-27.1L25.9,6z M25.9,6"/>
<path class="st1" d="M44.7,14.7L25.9,8.3v39.4L41.7,39L44.7,14.7z M44.7,14.7"/>
<path class="st2" d="M7.6,14.8l2.8,24.3l15.5,8.6V8.3L7.6,14.8z M7.6,14.8"/>
<path class="st3" d="M30.2,27.9l-4.3-9l-3.8,9H30.2z M31.9,31.7H20.4l-2.6,6.4l-4.8,0.1L25.9,9.7l13.2,28.5h-4.4L31.9,31.7z
	 M31.9,31.7"/>
<path class="st0" d="M25.9,9.7l0,9.1l4.3,9h-4.3l0,3.8l6,0l2.8,6.5l4.6,0.1L25.9,9.7z M25.9,9.7"/>
</svg>
