<svg id="Layer_1" xmlns="http://www.w3.org/2000/svg" viewBox="0 0 52 52"><style>.st0{fill:#de4f4f}</style><path class="st0" d="M45.6 35.6c-.7.8-1.7.1-1.7.1L23 13l22.8 21.1s.5.8-.2 1.5zm-2.3-7.3L33.8 18l10.4 9.5s.3.4-.1.7c-.3.4-.8.1-.8.1zM44.8 42c-1 1.1-2.4.2-2.4.2l-30-32.5L45 39.8c.1 0 .9 1.1-.2 2.2zm-3 5.4c-1 1.1-2.4.2-2.4.2L0 5.7l42 39.6c0-.1.8 1-.2 2.1zm-5.7 3.1c-1 1.1-2.4.2-2.4.2l-30-32.5 32.6 30.1c0-.1.8 1.1-.2 2.2zm-6.9 0c-.7.8-1.7.1-1.7.1l-21-22.7L29.4 49s.5.8-.2 1.5zm-7-1.8c-.4.4-.8.1-.8.1l-9.5-10.3L22.2 48s.3.3 0 .7z"/></svg>