<?xml version="1.0" encoding="utf-8"?>
<!-- Generator: Adobe Illustrator 20.0.0, SVG Export Plug-In . SVG Version: 6.00 Build 0)  -->
<svg version="1.1" id="Layer_1" xmlns="http://www.w3.org/2000/svg" xmlns:xlink="http://www.w3.org/1999/xlink" x="0px" y="0px"
	 viewBox="0 0 52 52" style="enable-background:new 0 0 52 52;" xml:space="preserve">
<style type="text/css">
	.st0{fill:#00D8FF;}
</style>
<circle class="st0" cx="26" cy="27.6" r="4.3"/>
<path class="st0" d="M26,37.4c-6,0-11.3-0.7-15.2-2.1C5.4,33.5,2,30.5,2,27.6c0-2.8,3.1-5.6,8.3-7.4c4.3-1.5,9.8-2.3,15.7-2.3
	c5.7,0,11.2,0.8,15.5,2.3c5.3,1.8,8.5,4.6,8.5,7.5c0,2.9-3.5,5.9-9.1,7.8C36.9,36.7,31.6,37.4,26,37.4z M26,19.9
	c-5.5,0-11,0.8-15,2.2c-4.8,1.7-7,4-7,5.5c0,1.6,2.3,4.1,7.4,5.8c3.7,1.3,8.8,1.9,14.6,1.9c5.4,0,10.5-0.7,14.3-1.9
	c5.3-1.7,7.7-4.3,7.7-5.8c0-1.5-2.2-3.8-7.2-5.5C36.8,20.7,31.5,19.9,26,19.9z"/>
<path class="st0" d="M16.3,49c-0.9,0-1.6-0.2-2.3-0.6c-2.5-1.4-3.3-5.5-2.3-10.9c0.8-4.4,2.9-9.7,5.8-14.7c2.9-5,6.3-9.3,9.7-12.3
	c3.1-2.7,6.1-4.2,8.5-4.2c0.8,0,1.6,0.2,2.2,0.5c2.6,1.5,3.4,6,2.2,11.8c-0.8,4.1-2.9,9-5.7,13.9c-3,5.2-6.3,9.4-9.4,12.2
	C22,47.4,18.8,49,16.3,49z M35.8,8.3c-1.8,0-4.5,1.4-7.2,3.7c-3.2,2.8-6.5,7-9.3,11.7c-2.8,4.8-4.8,9.9-5.6,14.1c-0.9,5,0,8,1.3,8.8
	c0.3,0.2,0.8,0.3,1.3,0.3c2,0,4.8-1.4,7.5-3.8c3-2.6,6.1-6.6,9-11.6c2.7-4.7,4.7-9.4,5.5-13.3c1.1-5.4,0.2-8.8-1.2-9.6
	C36.6,8.4,36.2,8.3,35.8,8.3z"/>
<path class="st0" d="M35.7,49c-2.4,0-5.3-1.4-8.4-4c-3.4-3-6.9-7.4-9.9-12.4c-2.9-5-4.9-10.1-5.8-14.5c-1.1-5.5-0.3-9.7,2.2-11.1
	c0.6-0.4,1.4-0.6,2.3-0.6c2.5,0,5.8,1.6,9,4.5c3.1,2.8,6.4,7,9.2,11.9c3,5.2,5,10.1,5.8,14.2c1.1,5.6,0.2,10-2.3,11.5
	C37.3,48.8,36.6,49,35.7,49z M16.2,8.4c-0.5,0-0.9,0.1-1.2,0.3c-1.3,0.7-2.2,3.9-1.2,9c0.8,4.2,2.8,9.1,5.5,13.9
	c2.8,4.8,6.2,9.1,9.4,11.9c2.6,2.3,5.2,3.5,7,3.5c0.5,0,0.9-0.1,1.2-0.3c1.4-0.8,2.4-4.1,1.3-9.3c-0.8-3.9-2.7-8.6-5.6-13.6
	c-2.7-4.7-5.9-8.7-8.8-11.4C21,9.9,18.2,8.4,16.2,8.4z"/>
</svg>
