<?xml version="1.0" encoding="utf-8"?>
<!-- Generator: Adobe Illustrator 20.0.0, SVG Export Plug-In . SVG Version: 6.00 Build 0)  -->
<svg version="1.1" id="レイヤー_1" xmlns="http://www.w3.org/2000/svg" xmlns:xlink="http://www.w3.org/1999/xlink" x="0px"
	 y="0px" viewBox="0 0 26 20" style="enable-background:new 0 0 26 20;" xml:space="preserve">
<style type="text/css">
	.st0{opacity:0.85;}
	.st1{fill:#FFFFFF;}
</style>
<g class="st0">
	<path class="st1" d="M7.2,1.7l12.4,13.6c0,0,0.2,0.2,0.5,0.2c0.2,0,0.3-0.1,0.5-0.2c0.4-0.5,0.1-0.9,0.1-0.9L7.2,1.7 M11.5,3.1
		l8.7,9.5c0,0,0.2,0.1,0.3,0.1c0.1,0,0.2,0,0.3-0.2c0.3-0.3,0.1-0.7,0.1-0.7L11.5,3.1 M16,5.2l3.9,4.3c0,0,0.1,0.1,0.2,0.1
		c0.1,0,0.1,0,0.2-0.1c0.1-0.2,0-0.3,0-0.3L16,5.2 M3.5,5.2l12.4,13.6c0,0,0.2,0.2,0.5,0.2c0.2,0,0.3-0.1,0.5-0.2
		c0.4-0.5,0.1-0.9,0.1-0.9L3.5,5.2 M4.7,9.3l8.7,9.5c0,0,0.2,0.1,0.3,0.1c0.1,0,0.2,0,0.3-0.2c0.3-0.3,0.1-0.6,0.1-0.6L4.7,9.3
		 M6.9,13.7l3.9,4.3c0,0,0.1,0.1,0.2,0.1c0.1,0,0.1,0,0.2-0.1c0.1-0.2,0-0.3,0-0.3L6.9,13.7 M2,0l16.3,17.6c0,0,0.2,0.2,0.5,0.2
		c0.2,0,0.3-0.1,0.5-0.2c0.4-0.5,0.1-0.9,0.1-0.9L2,0"/>
</g>
</svg>
