<?xml version="1.0" encoding="utf-8"?>
<svg xmlns="http://www.w3.org/2000/svg"
	xmlns:xlink="http://www.w3.org/1999/xlink"
	width="40px" height="32px" viewBox="0 0 40 32">
<path fillRule="evenodd" d="M 38.07 17.94C 38.07 17.94 1.93 17.94 1.93 17.94 0.87 17.94-0 17.07-0 16-0 14.93 0.87 14.06 1.93 14.06 1.93 14.06 38.07 14.06 38.07 14.06 39.13 14.06 40 14.93 40 16 40 17.07 39.13 17.94 38.07 17.94ZM 38.07 4.39C 38.07 4.39 1.93 4.39 1.93 4.39 0.87 4.39-0 3.52-0 2.45-0 1.38 0.87 0.52 1.93 0.52 1.93 0.52 38.07 0.52 38.07 0.52 39.13 0.52 40 1.38 40 2.45 40 3.52 39.13 4.39 38.07 4.39ZM 1.93 27.61C 1.93 27.61 38.07 27.61 38.07 27.61 39.13 27.61 40 28.48 40 29.55 40 30.62 39.13 31.48 38.07 31.48 38.07 31.48 1.93 31.48 1.93 31.48 0.87 31.48-0 30.62-0 29.55-0 28.48 0.87 27.61 1.93 27.61Z" fill="rgb(255,255,255)"/></svg>