<?xml version="1.0" encoding="utf-8"?>
<!-- Generator: Adobe Illustrator 20.0.0, SVG Export Plug-In . SVG Version: 6.00 Build 0)  -->
<svg version="1.1" id="レイヤー_1" xmlns="http://www.w3.org/2000/svg" xmlns:xlink="http://www.w3.org/1999/xlink" x="0px"
	 y="0px" viewBox="0 0 26 20" style="enable-background:new 0 0 26 20;" xml:space="preserve">
<style type="text/css">
	.st0{fill:#00D8FF;}
</style>
<g>
	<path class="st0" d="M13,7.8c-0.9,0-1.6,0.7-1.6,1.6s0.7,1.6,1.6,1.6c0.9,0,1.6-0.7,1.6-1.6S13.9,7.8,13,7.8"/>
	<path class="st0" d="M13,13.6c0.2,0,0.3,0,0.5,0c-0.2,0.2-0.3,0.4-0.5,0.5c-0.2-0.2-0.3-0.4-0.5-0.5C12.7,13.6,12.9,13.6,13,13.6
		 M9.3,16.6c-0.1,0-0.3,0-0.3-0.1c-0.3-0.2-0.7-1.2-0.3-3c0-0.1,0-0.2,0.1-0.3c0.6,0.1,1.3,0.2,2.1,0.3c0.4,0.6,0.9,1.1,1.3,1.6
		c0,0-0.1,0.1-0.1,0.1C10.8,16.2,9.8,16.6,9.3,16.6 M16.7,16.6c-0.5,0-1.4-0.3-2.5-1.3c-0.1-0.1-0.2-0.1-0.2-0.2
		c0.4-0.5,0.9-1,1.3-1.6c0.7-0.1,1.4-0.2,2.1-0.3c0,0,0,0.1,0,0.1c0.4,1.9,0,3-0.4,3.3C17,16.6,16.9,16.6,16.7,16.6 M9.7,11.9
		c-0.2,0-0.5-0.1-0.7-0.1c0.1-0.2,0.2-0.4,0.2-0.7c0.1,0.1,0.1,0.3,0.2,0.4C9.6,11.7,9.7,11.8,9.7,11.9 M16.3,11.9
		c0.1-0.1,0.2-0.3,0.2-0.4c0.1-0.1,0.2-0.3,0.2-0.4c0.1,0.2,0.2,0.5,0.3,0.7C16.8,11.8,16.5,11.9,16.3,11.9 M18.4,11.4
		c-0.2-0.6-0.5-1.3-0.8-2c0.3-0.7,0.6-1.3,0.8-1.9c0.1,0,0.2,0.1,0.3,0.1c1.8,0.6,2.5,1.5,2.5,1.8C21.1,9.9,20.4,10.8,18.4,11.4
		L18.4,11.4 M7.7,11.5c-0.1,0-0.1,0-0.2,0c-1.8-0.6-2.6-1.5-2.6-1.9c0-0.4,0.7-1.2,2.5-1.8c0.1,0,0.2-0.1,0.3-0.1
		c0.2,0.6,0.5,1.3,0.8,1.9C8.1,10.2,7.9,10.8,7.7,11.5 M16.7,7.9c-0.1-0.1-0.1-0.3-0.2-0.4c-0.1-0.1-0.1-0.2-0.2-0.4
		c0.2,0,0.5,0.1,0.7,0.1C16.9,7.4,16.8,7.6,16.7,7.9 M9.3,7.9C9.2,7.6,9.1,7.4,9,7.2c0.2,0,0.4-0.1,0.7-0.1C9.6,7.2,9.6,7.3,9.5,7.5
		C9.4,7.6,9.3,7.7,9.3,7.9 M13,12.2c-0.5,0-1,0-1.5,0c-0.3-0.4-0.5-0.8-0.8-1.3c-0.3-0.4-0.5-0.9-0.7-1.3c0.2-0.4,0.5-0.9,0.7-1.3
		c0.3-0.4,0.5-0.9,0.8-1.3c0.5,0,1-0.1,1.5-0.1c0.5,0,1,0,1.5,0.1c0.3,0.4,0.5,0.8,0.8,1.3c0.3,0.4,0.5,0.9,0.7,1.3
		c-0.2,0.4-0.5,0.9-0.7,1.3c-0.3,0.4-0.5,0.9-0.8,1.3C14,12.1,13.5,12.2,13,12.2 M12.6,5.4c0.1-0.2,0.3-0.4,0.4-0.5
		c0.1,0.2,0.3,0.3,0.4,0.5c-0.2,0-0.3,0-0.5,0C12.9,5.4,12.7,5.4,12.6,5.4 M8.7,5.9c0-0.1,0-0.2-0.1-0.3c-0.4-1.9,0-2.9,0.3-3.1
		c0.1,0,0.2-0.1,0.3-0.1c0.5,0,1.5,0.4,2.7,1.5l0.1,0c-0.4,0.5-0.9,1-1.3,1.6C10,5.6,9.3,5.7,8.7,5.9 M17.3,5.9
		c-0.7-0.1-1.3-0.2-2.1-0.3C14.9,5,14.4,4.4,14,3.9c0.1-0.1,0.1-0.1,0.2-0.2c1.2-1,2.1-1.3,2.6-1.3c0.1,0,0.2,0,0.3,0.1
		C17.4,2.7,17.8,3.7,17.3,5.9L17.3,5.9 M16.7,1c-1,0-2.2,0.6-3.5,1.7c-0.1,0.1-0.2,0.2-0.3,0.2c0,0-0.1-0.1-0.1-0.1
		C11.6,1.6,10.3,1,9.2,1c-0.4,0-0.7,0.1-1,0.3c-1.1,0.6-1.4,2.3-1,4.6c0,0.1,0.1,0.2,0.1,0.3C7.2,6.3,7,6.3,6.9,6.3
		C4.8,7.1,3.5,8.3,3.5,9.5c0,1.3,1.4,2.5,3.6,3.3c0.1,0,0.2,0,0.2,0.1c0,0.1-0.1,0.3-0.1,0.4c-0.4,2.2,0,3.9,1,4.5
		c0.3,0.2,0.6,0.3,1,0.3c1,0,2.3-0.6,3.6-1.7c0.1-0.1,0.1-0.1,0.2-0.2c0.1,0.1,0.2,0.2,0.3,0.3c1.2,1.1,2.4,1.6,3.4,1.6
		c0.4,0,0.7-0.1,1-0.3c1.1-0.6,1.5-2.4,1-4.7c0-0.1,0-0.2-0.1-0.2c0,0,0.1,0,0.1,0c2.3-0.8,3.7-2,3.7-3.3c0-1.2-1.3-2.4-3.5-3.2
		c-0.1,0-0.2-0.1-0.3-0.1c0,0,0-0.1,0-0.1c0.5-2.4,0.1-4.2-1-4.8C17.4,1.1,17.1,1,16.7,1"/>
</g>
</svg>
