<?xml version="1.0" encoding="utf-8"?>
<!-- Generator: Adobe Illustrator 20.0.0, SVG Export Plug-In . SVG Version: 6.00 Build 0)  -->
<svg version="1.1" id="Trace" xmlns="http://www.w3.org/2000/svg" xmlns:xlink="http://www.w3.org/1999/xlink" x="0px" y="0px"
	 viewBox="0 0 26 20" style="enable-background:new 0 0 26 20;" xml:space="preserve">
<style type="text/css">
	.st0{fill:#F0DB4F;}
	.st1{fill:#323330;}
</style>
<rect x="4" y="1" class="st0" width="18" height="18"/>
<path class="st1" d="M10.1,15.2c0.5,0.9,0.8,0.9,1.2,0.9c0.4,0,0.8-0.3,0.8-0.8V15V9.3h1.7l0,6c0,1.2-1,2.3-2.3,2.3
	c-1.1,0-2.1-0.2-2.8-1.5L10.1,15.2z"/>
<path class="st1" d="M16.1,15.1c0.3,0.6,0.9,1,1.6,1c0.9,0,1.2-0.4,1.2-0.8c0-0.4-0.3-0.7-0.7-0.9c0,0-0.5-0.2-1.2-0.5
	c-0.7-0.3-1-0.6-1-0.6c-0.5-0.4-0.8-1.1-0.8-1.8c0-1.3,1-2.3,2.3-2.3c0.9,0,1.9,0.1,2.6,1.3l-1.3,0.8c-0.3-0.6-0.7-0.7-1.1-0.7
	c-0.4,0-0.8,0.3-0.8,0.8c0,0.3,0.1,0.5,0.3,0.6c0,0,0.4,0.2,0.9,0.5s1.2,0.6,1.2,0.6c0.8,0.5,1.2,1.1,1.2,2.2c0,1.3-0.9,2.3-3,2.3
	c-1.2,0-2.4-0.7-2.9-1.7L16.1,15.1z"/>
</svg>
