<svg id="レイヤー_1" xmlns="http://www.w3.org/2000/svg" viewBox="0 0 26 20"><style>.st0{fill:#00d8ff}</style><path class="st0" d="M13 7.8c-.9 0-1.6.7-1.6 1.6S12.1 11 13 11c.9 0 1.6-.7 1.6-1.6s-.7-1.6-1.6-1.6"/><path class="st0" d="M13 13.6h.5c-.2.2-.3.4-.5.5-.2-.2-.3-.4-.5-.5h.5m-3.7 3c-.1 0-.3 0-.3-.1-.3-.2-.7-1.2-.3-3 0-.1 0-.2.1-.3.6.1 1.3.2 2.1.3.4.6.9 1.1 1.3 1.6l-.1.1c-1.3 1-2.3 1.4-2.8 1.4m7.4 0c-.5 0-1.4-.3-2.5-1.3-.1-.1-.2-.1-.2-.2.4-.5.9-1 1.3-1.6l2.1-.3v.1c.4 1.9 0 3-.4 3.3h-.3m-7-4.7c-.2 0-.5-.1-.7-.1.1-.2.2-.4.2-.7.1.1.1.3.2.4.2.2.3.3.3.4m6.6 0c.1-.1.2-.3.2-.4.1-.1.2-.3.2-.4.1.2.2.5.3.7-.2 0-.5.1-.7.1m2.1-.5c-.2-.6-.5-1.3-.8-2 .3-.7.6-1.3.8-1.9.1 0 .2.1.3.1 1.8.6 2.5 1.5 2.5 1.8-.1.5-.8 1.4-2.8 2m-10.7.1h-.2c-1.8-.6-2.6-1.5-2.6-1.9 0-.4.7-1.2 2.5-1.8.1 0 .2-.1.3-.1.2.6.5 1.3.8 1.9-.4.6-.6 1.2-.8 1.9m9-3.6c-.1-.1-.1-.3-.2-.4-.1-.1-.1-.2-.2-.4.2 0 .5.1.7.1-.1.2-.2.4-.3.7m-7.4 0c-.1-.3-.2-.5-.3-.7.2 0 .4-.1.7-.1-.1.1-.1.2-.2.4-.1.1-.2.2-.2.4m3.7 4.3h-1.5c-.3-.4-.5-.8-.8-1.3-.3-.4-.5-.9-.7-1.3.2-.4.5-.9.7-1.3.3-.4.5-.9.8-1.3.5 0 1-.1 1.5-.1s1 0 1.5.1c.3.4.5.8.8 1.3.3.4.5.9.7 1.3-.2.4-.5.9-.7 1.3-.3.4-.5.9-.8 1.3-.5-.1-1 0-1.5 0m-.4-6.8c.1-.2.3-.4.4-.5.1.2.3.3.4.5h-.8m-3.9.5c0-.1 0-.2-.1-.3-.4-1.9 0-2.9.3-3.1.1 0 .2-.1.3-.1.5 0 1.5.4 2.7 1.5h.1c-.4.5-.9 1-1.3 1.6-.7.1-1.4.2-2 .4m8.6 0c-.7-.1-1.3-.2-2.1-.3-.3-.6-.8-1.2-1.2-1.7l.2-.2c1.2-1 2.1-1.3 2.6-1.3.1 0 .2 0 .3.1.3.2.7 1.2.2 3.4M16.7 1c-1 0-2.2.6-3.5 1.7-.1.1-.2.2-.3.2l-.1-.1C11.6 1.6 10.3 1 9.2 1c-.4 0-.7.1-1 .3-1.1.6-1.4 2.3-1 4.6 0 .1.1.2.1.3-.1.1-.3.1-.4.1-2.1.8-3.4 2-3.4 3.2 0 1.3 1.4 2.5 3.6 3.3.1 0 .2 0 .2.1s-.1.3-.1.4c-.4 2.2 0 3.9 1 4.5.3.2.6.3 1 .3 1 0 2.3-.6 3.6-1.7l.2-.2.3.3c1.2 1.1 2.4 1.6 3.4 1.6.4 0 .7-.1 1-.3 1.1-.6 1.5-2.4 1-4.7 0-.1 0-.2-.1-.2h.1c2.3-.8 3.7-2 3.7-3.3 0-1.2-1.3-2.4-3.5-3.2-.1 0-.2-.1-.3-.1v-.1c.5-2.4.1-4.2-1-4.8-.2-.3-.5-.4-.9-.4"/></svg>