<?xml version="1.0" encoding="utf-8"?>
<!-- Generator: Adobe Illustrator 20.0.0, SVG Export Plug-In . SVG Version: 6.00 Build 0)  -->
<svg version="1.1" id="Layer_1" xmlns="http://www.w3.org/2000/svg" xmlns:xlink="http://www.w3.org/1999/xlink" x="0px" y="0px"
	 viewBox="0 0 80 80" style="enable-background:new 0 0 80 80;" xml:space="preserve">
<style type="text/css">
	.st0{fill:none;stroke:#838787;stroke-width:2.5;stroke-linecap:round;stroke-linejoin:round;stroke-miterlimit:10;}
</style>
<g>
	<path class="st0" d="M37.1,29.9l-11.2,6.5c-3.8,2.2-6.3,0.8-18.5-1.8l-2.3,1.3l9.8,6.8l-2,1.1c-0.5,0.3-0.2,1,0.3,1
		C28,42.8,34.9,40,34.9,40l32.2-18.6c0,0,11.1-6.4,6.7-8c-4.9-1.8-15,3.9-15,3.9l-12.4,7.2l-20.5-7.2L24.6,18l14.7,13.6"/>
	<polyline class="st0" points="53.6,34.1 52.8,41.3 50.9,42.8 46.3,38.5 	"/>
	<line class="st0" x1="6.6" y1="66.9" x2="46.3" y2="66.9"/>
</g>
</svg>
