<?xml version="1.0" encoding="utf-8"?>
<!-- Generator: Adobe Illustrator 20.0.0, SVG Export Plug-In . SVG Version: 6.00 Build 0)  -->
<svg version="1.1" id="Trace" xmlns="http://www.w3.org/2000/svg" xmlns:xlink="http://www.w3.org/1999/xlink" x="0px" y="0px"
	 viewBox="0 0 26 20" style="enable-background:new 0 0 26 20;" xml:space="preserve">
<style type="text/css">
	.st0{opacity:0.6;fill:#FFFFFF;}
</style>
<path class="st0" d="M4,1v18h18V1H4z M13.8,15.3c0,1.2-1,2.3-2.3,2.3c-1.1,0-2.1-0.2-2.8-1.5l1.4-0.8c0.5,0.9,0.8,0.9,1.2,0.9
	c0.4,0,0.8-0.3,0.8-0.8V15V9.3h1.7L13.8,15.3z M17.6,17.6c-1.2,0-2.4-0.7-2.9-1.7l1.4-0.8c0.3,0.6,0.9,1,1.6,1
	c0.9,0,1.2-0.4,1.2-0.8c0-0.4-0.3-0.7-0.7-0.9c0,0-0.5-0.2-1.2-0.5c-0.7-0.3-1-0.6-1-0.6c-0.5-0.4-0.8-1.1-0.8-1.8
	c0-1.3,1-2.3,2.3-2.3c0.9,0,1.9,0.1,2.6,1.3l-1.3,0.8c-0.3-0.6-0.7-0.7-1.1-0.7c-0.4,0-0.8,0.3-0.8,0.8c0,0.3,0.1,0.5,0.3,0.6
	c0,0,0.4,0.2,0.9,0.5s1.2,0.6,1.2,0.6c0.8,0.5,1.2,1.1,1.2,2.2C20.6,16.5,19.7,17.6,17.6,17.6z"/>
</svg>
