<svg id="Layer_1" xmlns="http://www.w3.org/2000/svg" viewBox="0 0 52 52"><style>.st0{fill:#b2b2b2}.st1{fill:#b52e31}.st2{fill:#e23237}.st3{fill:#f2f2f2}</style><path class="st0" d="M25.9 6L5.2 13.3l3.3 27.1L26 50l17.5-9.7 3.3-27.1L25.9 6zm0 0"/><path class="st1" d="M44.7 14.7L25.9 8.3v39.4L41.7 39l3-24.3zm0 0"/><path class="st2" d="M7.6 14.8l2.8 24.3 15.5 8.6V8.3L7.6 14.8zm0 0"/><path class="st3" d="M30.2 27.9l-4.3-9-3.8 9h8.1zm1.7 3.8H20.4l-2.6 6.4-4.8.1L25.9 9.7l13.2 28.5h-4.4l-2.8-6.5zm0 0"/><path class="st0" d="M25.9 9.7v9.1l4.3 9h-4.3v3.8h6l2.8 6.5 4.6.1L25.9 9.7zm0 0"/></svg>