<?xml version="1.0" encoding="utf-8"?>
<!-- Generator: Adobe Illustrator 20.0.0, SVG Export Plug-In . SVG Version: 6.00 Build 0)  -->
<svg version="1.1" xmlns="http://www.w3.org/2000/svg" xmlns:xlink="http://www.w3.org/1999/xlink" x="0px" y="0px"
	 viewBox="0 0 26 20" style="enable-background:new 0 0 26 20;" xml:space="preserve">
<style type="text/css">
	.st0{fill:#E23337;}
	.st1{fill:#B63032;}
</style>
<g id="レイヤー_1">
	<g>
		<path class="st0" d="M4,3.1l1.4,11.7L13,19v-7.4h-2.4l-1.1,2.8l-2.1,0L13,2.1l0,0V0L4,3.1z"/>
		<path class="st0" d="M13,9.9V6l-1.6,3.9H13z"/>
	</g>
	<g>
		<path class="st1" d="M13,0v2.1l0,0l5.5,12.3l-2.1,0l-1.1-2.8H13V19l7.6-4.1L22,3.1L13,0z"/>
		<path class="st1" d="M14.6,9.9L13,6v3.9H14.6z"/>
	</g>
</g>
<g id="_x31_outlined">
	<g>
		<path class="st1" d="M23.8,12H25v7h-1.4v-5.4l-1.2,1l-0.7-0.9L23.8,12z"/>
	</g>
</g>
</svg>
