<svg id="レイヤー_1" xmlns="http://www.w3.org/2000/svg" viewBox="0 0 26 20"><style>.st0{fill:#de4f4f}</style><path class="st0" d="M7.2 1.7l12.4 13.6s.2.2.5.2c.2 0 .3-.1.5-.2.4-.5.1-.9.1-.9L7.2 1.7m4.3 1.4l8.7 9.5s.2.1.3.1c.1 0 .2 0 .3-.2.3-.3.1-.7.1-.7l-9.4-8.7M16 5.2l3.9 4.3s.1.1.2.1.1 0 .2-.1c.1-.2 0-.3 0-.3l-4.3-4m-12.5 0l12.4 13.6s.2.2.5.2c.2 0 .3-.1.5-.2.4-.5.1-.9.1-.9L3.5 5.2m1.2 4.1l8.7 9.5s.2.1.3.1c.1 0 .2 0 .3-.2.3-.3.1-.6.1-.6L4.7 9.3m2.2 4.4l3.9 4.3s.1.1.2.1.1 0 .2-.1c.1-.2 0-.3 0-.3l-4.3-4M2 0l16.3 17.6s.2.2.5.2c.2 0 .3-.1.5-.2.4-.5.1-.9.1-.9L2 0"/></svg>