<svg id="Trace" xmlns="http://www.w3.org/2000/svg" viewBox="0 0 26 20"><style>.st0{fill:#f0db4f}.st1{fill:#323330}</style><path class="st0" d="M4 1h18v18H4z"/><path class="st1" d="M10.1 15.2c.5.9.8.9 1.2.9.4 0 .8-.3.8-.8v-6h1.7v6c0 1.2-1 2.3-2.3 2.3-1.1 0-2.1-.2-2.8-1.5l1.4-.9zm6-.1c.3.6.9 1 1.6 1 .9 0 1.2-.4 1.2-.8s-.3-.7-.7-.9c0 0-.5-.2-1.2-.5s-1-.6-1-.6c-.5-.4-.8-1.1-.8-1.8 0-1.3 1-2.3 2.3-2.3.9 0 1.9.1 2.6 1.3l-1.3.8c-.3-.6-.7-.7-1.1-.7-.4 0-.8.3-.8.8 0 .3.1.5.3.6 0 0 .4.2.9.5s1.2.6 1.2.6c.8.5 1.2 1.1 1.2 2.2 0 1.3-.9 2.3-3 2.3-1.2 0-2.4-.7-2.9-1.7l1.5-.8z"/></svg>