<?xml version="1.0" encoding="utf-8"?>
<!-- Generator: Adobe Illustrator 19.2.1, SVG Export Plug-In . SVG Version: 6.00 Build 0)  -->
<svg version="1.1" id="レイヤー_1" xmlns="http://www.w3.org/2000/svg" xmlns:xlink="http://www.w3.org/1999/xlink" x="0px"
	 y="0px" viewBox="0 0 15 15" style="enable-background:new 0 0 15 15;" xml:space="preserve">
<style type="text/css">
	.st0{fill:#E3C607;}
	.st1{fill:#323330;}
	.st2{fill:#B52E31;}
	.st3{fill:#00ADCC;}
	.st4{fill:none;stroke:#00ADCC;stroke-miterlimit:10;}
</style>
<rect x="1" y="1" class="st0" width="13" height="13"/>
<path class="st1" d="M6.7,8.5c0,0.3,0,0.7,0,1c-0.1,0.9-0.6,1.5-1.5,1.8c-0.8,0.2-1.5,0.2-2.2-0.2c-0.4-0.2-0.8-0.7-1-1.1
	c0.4-0.3,0.8-0.5,1.3-0.8c0,0,0.1,0.1,0.1,0.1c0.1,0.2,0.2,0.4,0.4,0.5c0.3,0.2,0.7,0.2,1,0.1C5,9.8,5.1,9.6,5.1,9.3
	c0-0.2,0-0.5,0-0.7c0-1.6,0-3.2,0-4.8c0-0.1,0-0.1,0.1-0.1c0.5,0,0.9,0,1.4,0c0,0,0.1,0,0.1,0c0,0,0,0.1,0,0.1
	C6.7,5.4,6.7,6.9,6.7,8.5z"/>
<path class="st1" d="M13,9.5c0,0.5-0.2,0.9-0.6,1.2c-0.3,0.3-0.6,0.5-1,0.6c-1,0.3-2,0.2-2.9-0.4c-0.4-0.2-0.6-0.6-0.9-0.9
	c0,0,0-0.1,0-0.1c0,0,0,0,0,0C8,9.6,8.4,9.3,8.8,9.1C8.9,9.2,8.9,9.2,9,9.3c0.3,0.3,0.6,0.6,1,0.7c0.3,0.1,0.7,0,1-0.1
	c0.4-0.2,0.5-0.5,0.4-0.9c0-0.2-0.2-0.3-0.3-0.4c-0.2-0.2-0.5-0.3-0.8-0.4C9.9,8,9.5,7.9,9.1,7.6C8.3,7.1,7.9,6.4,8,5.5
	C8.1,4.6,8.6,4,9.4,3.7c0.4-0.1,0.8-0.2,1.3-0.1c0.4,0,0.7,0.1,1,0.3c0.3,0.2,0.6,0.5,0.8,0.9c0,0,0,0,0,0c-0.4,0.3-0.8,0.5-1.2,0.8
	c0,0,0-0.1,0-0.1C11.1,5.2,10.8,5,10.4,5c-0.2,0-0.3,0-0.5,0.1C9.6,5.2,9.5,5.5,9.6,5.8c0,0.2,0.1,0.4,0.3,0.5
	c0.2,0.1,0.4,0.2,0.6,0.3c0.4,0.2,0.9,0.4,1.3,0.6c0.3,0.2,0.7,0.5,0.9,0.8C13,8.4,13,8.9,13,9.5z"/>
</svg>
