<svg id="レイヤー_1" xmlns="http://www.w3.org/2000/svg" viewBox="0 0 15 15"><style>.st0{fill:#e3c607}.st1{fill:#323330}.st2{fill:#b52e31}.st3{fill:#00adcc}.st4{fill:none;stroke:#00adcc;stroke-miterlimit:10}</style><path class="st0" d="M1 1h13v13H1z"/><path class="st1" d="M6.7 8.5v1c-.1.9-.6 1.5-1.5 1.8-.8.2-1.5.2-2.2-.2-.4-.2-.8-.7-1-1.1.4-.3.8-.5 1.3-.8l.1.1c.1.2.2.4.4.5.3.2.7.2 1 .1.2-.1.3-.3.3-.6v-.7-4.8c0-.1 0-.1.1-.1h1.5v4.8zM13 9.5c0 .5-.2.9-.6 1.2-.3.3-.6.5-1 .6-1 .3-2 .2-2.9-.4-.4-.2-.6-.6-.9-.9v-.1c.4-.3.8-.6 1.2-.8l.2.2c.3.3.6.6 1 .7.3.1.7 0 1-.1.4-.2.5-.5.4-.9 0-.2-.2-.3-.3-.4-.2-.2-.5-.3-.8-.4-.4-.2-.8-.3-1.2-.6-.8-.5-1.2-1.2-1.1-2.1.1-.9.6-1.5 1.4-1.8.4-.1.8-.2 1.3-.1.4 0 .7.1 1 .3.3.2.6.5.8.9-.4.3-.8.5-1.2.8v-.1c-.2-.3-.5-.5-.9-.5-.2 0-.3 0-.5.1-.3.1-.4.4-.3.7 0 .2.1.4.3.5l.6.3c.4.2.9.4 1.3.6.3.2.7.5.9.8.3.4.3.9.3 1.5z"/></svg>