<svg id="レイヤー_1" xmlns="http://www.w3.org/2000/svg" viewBox="0 0 20 15"><style>.st0{fill:#e3c607}.st1{fill:#323330}.st2{fill:#b52e31}.st3{fill:#00adcc}.st4{fill:none;stroke:#00adcc;stroke-miterlimit:10}</style><path class="st2" d="M9 7.7L7.6 4.9 6.4 7.7z"/><path class="st2" d="M7.6.5L1 2.8l1 8.6 5.6 3.1 5.6-3.1 1-8.6L7.6.5zm2.8 10.4l-.9-2H5.9l-.8 2H3.6l4-8.9 4.2 8.9h-1.4z"/><g><path class="st2" d="M14.4 15v-1.2c.6-.6 3-2.6 3-3.9 0-.6-.6-.9-1.1-.9-.6 0-1.1.3-1.6.6l-.1-1.2c.6-.3 1.4-.5 2.1-.5 1.3 0 2.2.7 2.2 2 0 1.5-1.5 2.8-2.6 4H19V15h-4.6z"/></g></svg>