<?xml version="1.0" encoding="utf-8"?>
<!-- Generator: Adobe Illustrator 19.2.1, SVG Export Plug-In . SVG Version: 6.00 Build 0)  -->
<svg version="1.1" id="レイヤー_1" xmlns="http://www.w3.org/2000/svg" xmlns:xlink="http://www.w3.org/1999/xlink" x="0px"
	 y="0px" viewBox="0 0 20 15" style="enable-background:new 0 0 20 15;" xml:space="preserve">
<style type="text/css">
	.st0{fill:#E3C607;}
	.st1{fill:#323330;}
	.st2{fill:#B52E31;}
	.st3{fill:#00ADCC;}
	.st4{fill:none;stroke:#00ADCC;stroke-miterlimit:10;}
</style>
<g>
	<polygon class="st2" points="9,7.7 7.6,4.9 6.4,7.7 	"/>
	<path class="st2" d="M7.6,0.5L1,2.8l1,8.6l5.6,3.1l5.6-3.1l1-8.6L7.6,0.5z M10.4,10.9l-0.9-2H5.9l-0.8,2l-1.5,0l4-8.9l4.2,8.9
		L10.4,10.9z"/>
</g>
<g>
	<path class="st2" d="M14.4,15v-1.2c0.6-0.6,3-2.6,3-3.9c0-0.6-0.6-0.9-1.1-0.9c-0.6,0-1.1,0.3-1.6,0.6l-0.1-1.2
		c0.6-0.3,1.4-0.5,2.1-0.5c1.3,0,2.2,0.7,2.2,2c0,1.5-1.5,2.8-2.6,4H19V15H14.4z"/>
</g>
</svg>
