<svg id="レイヤー_1" xmlns="http://www.w3.org/2000/svg" viewBox="0 0 15 15"><style>.st0{fill:#e3c607}.st1{fill:#323330}.st2{fill:#b52e31}.st3{fill:#00adcc}.st4{fill:none;stroke:#00adcc;stroke-miterlimit:10}</style><circle class="st3" cx="7.5" cy="7.5" r="1.6"/><path class="st3" d="M15 7.5c0-1.1-1-2-2.8-2.7.4-1.9 0-3.3-.9-3.8S9 .9 7.6 2.1C6.1.9 4.6.5 3.7 1c-.9.6-1.2 1.9-.9 3.8h-.1C1 5.5 0 6.4 0 7.5s1.1 2.1 2.9 2.7v.1c-.3 1.8 0 3.2.9 3.7.3.2.6.2.9.2.8 0 1.9-.5 2.9-1.3h.1c1 .9 1.9 1.3 2.8 1.3.3 0 .6-.1.9-.2.9-.5 1.3-2 .9-3.8 1.6-.6 2.7-1.6 2.7-2.7zm-4.3 1.2c.1.3.2.5.3.8-.3.1-.6.1-.9.2.1-.2.2-.3.3-.5.1-.2.2-.4.3-.5zm-1.2 0c-.2.4-.4.8-.7 1.1-.4 0-.8.1-1.3.1H6.2c-.3-.4-.5-.8-.7-1.2-.3-.4-.5-.8-.7-1.2.2-.4.4-.8.7-1.2.2-.4.5-.8.7-1.1.4 0 .9-.1 1.3-.1.5 0 .9 0 1.3.1.2.4.5.7.7 1.1l.6 1.2c-.1.4-.3.8-.6 1.2zm-2 2.8c-.2-.2-.4-.4-.6-.7H8c-.1.3-.3.5-.5.7zM4.6 9.2c.1.2.2.3.3.5-.3-.1-.6-.1-.9-.2.1-.2.2-.5.3-.8.1.2.2.3.3.5zm-.3-2.9c-.1-.3-.2-.5-.2-.8.3-.1.5-.1.8-.2-.1.2-.2.4-.3.5-.1.2-.2.4-.3.5zm3.2-2.8c.2.2.4.5.6.7H7c.1-.2.3-.5.5-.7zm2.9 2.3c-.1-.2-.2-.3-.3-.5.3 0 .6.1.8.2-.1.3-.2.5-.3.8 0-.1-.1-.3-.2-.5zm.3-3.9c.4.2.7 1.2.4 2.7-.5-.2-1.1-.3-1.7-.3-.4-.5-.8-1-1.2-1.4.8-.7 1.6-1.1 2.1-1.1.2 0 .3 0 .4.1zm-6.5 0c.1-.1.2-.1.4-.1.6 0 1.3.4 2.1 1.1-.3.4-.7.9-1.1 1.4-.6 0-1.2.1-1.8.3-.2-1.4-.1-2.4.4-2.7zM1 7.5c0-.6.8-1.3 2.1-1.7.2.6.4 1.1.6 1.7-.2.6-.4 1.2-.6 1.7C1.6 8.7 1 8 1 7.5zm3.2 5.6c-.5-.3-.7-1.3-.4-2.6l1.8.3c.4.5.8 1 1.2 1.4-1 .8-2.1 1.2-2.6.9zm6.5 0c-.5.3-1.5-.1-2.5-1 .4-.4.8-.9 1.1-1.4.6-.1 1.3-.2 1.8-.3.4 1.6.1 2.5-.4 2.7zm1.2-3.9c-.2-.5-.4-1.1-.7-1.7.3-.6.5-1.1.6-1.7 1.4.5 2.2 1.1 2.2 1.7 0 .5-.7 1.2-2.1 1.7z"/></svg>