<svg xmlns="http://www.w3.org/2000/svg" height="103.937" viewBox="0 0 311.81249 77.953125" width="415.747"><path d="M311.81 77.95H0V-.003h311.81z" fill="#ff1930"/><g fill="#fff"><path d="M97.88 31.68c1.04 1.07 1.988 2.437 2.395 3.852 1.92 6.76-5.207 14.54-15.68 17.52-10.473 2.976-20.625.113-22.55-6.653-.4-1.41-.314-3.08.01-4.54.528-2.335-3.285 2.71-1.91 7.556 2.227 7.832 13.094 10.906 25.223 7.457 12.13-3.45 20.336-11.95 18.11-19.78-1.376-4.84-7.274-7.13-5.6-5.42"/><path d="M97.96 15.89c-6.57 6.918 3.023 21.734-11.29 28.707 7.708-10.266 1.704-21.895 3.493-25.426 1.79-3.53 7.797-3.28 7.797-3.28m-10.52 2.7c-5.38 7.83-.3 20.11-3.648 24.8-3.344 4.675-6.8 1.147-7.286-.04 7.512 4-4.746-18.49 10.934-24.754"/><path d="M83.18 44.13c-3.934 4.148-10.11 3.656-17.633 1.695 3.328-3.984 1.293-9.36 2.152-14.344.81-4.73 5.64-8.85 11.05-10.44-6.718 5.46-6.01 14.81-4.936 18.47 1.957 6.658 9.36 4.627 9.36 4.627m34.6-1.49c0 1.31.27 2.512.815 3.61a5.966 5.966 0 0 0 2.426 2.574c1.074.62 2.21.93 3.4.93a6.96 6.96 0 0 0 3.272-.817c1.04-.543 1.96-1.3 2.78-2.27.816-.97 1.46-2.16 1.933-3.58.47-1.42.706-2.81.706-4.18 0-2.226-.62-3.996-1.864-5.316-1.248-1.32-2.783-1.98-4.61-1.98-2.337 0-4.4 1-6.184 2.992-1.79 1.995-2.68 4.675-2.68 8.034m-2.943-.152c0-3.98 1.152-7.2 3.453-9.662 2.297-2.46 5.086-3.692 8.368-3.692 2.785 0 5.05.906 6.8 2.718 1.754 1.813 2.63 4.246 2.63 7.29 0 2.175-.44 4.19-1.33 6.046-.66 1.394-1.49 2.593-2.5 3.6-1 1.01-2.077 1.794-3.22 2.34a11.09 11.09 0 0 1-4.85 1.098c-1.79 0-3.413-.425-4.882-1.28a8.29 8.29 0 0 1-3.333-3.57 10.843 10.843 0 0 1-1.134-4.883m23.603 9.352l3.38-16.177h2.5l-.595 2.82c1.082-1.11 2.098-1.916 3.047-2.423.94-.504 1.906-.762 2.89-.762 1.31 0 2.34.36 3.087 1.07.743.708 1.12 1.66 1.12 2.85 0 .596-.14 1.542-.4 2.83l-2.055 9.794h-2.758l2.147-10.25c.21-.997.316-1.736.316-2.208 0-.54-.185-.976-.556-1.312-.37-.338-.908-.5-1.608-.5-1.414 0-2.668.506-3.77 1.522-1.105 1.015-1.91 2.754-2.433 5.222l-1.563 7.524zm18.61-5.52l2.76-.17c0 .79.116 1.47.362 2.02.242.56.69 1.017 1.35 1.376.65.352 1.416.532 2.29.532 1.22 0 2.134-.246 2.743-.73.604-.49.913-1.063.913-1.723 0-.48-.19-.93-.55-1.356-.378-.428-1.296-.95-2.75-1.576-1.46-.627-2.39-1.07-2.796-1.32-.683-.417-1.195-.91-1.54-1.47-.343-.568-.518-1.21-.518-1.943 0-1.28.507-2.38 1.523-3.29 1.02-.916 2.436-1.373 4.264-1.373 2.03 0 3.58.473 4.637 1.41 1.065.942 1.616 2.176 1.66 3.71l-2.7.185c-.04-.976-.383-1.745-1.036-2.316-.646-.57-1.564-.856-2.756-.856-.953 0-1.69.22-2.222.656-.527.438-.79.91-.79 1.418 0 .51.228.955.685 1.34.305.264 1.09.67 2.36 1.22 2.113.915 3.44 1.638 3.992 2.165.87.84 1.305 1.865 1.305 3.072 0 .8-.245 1.59-.737 2.362-.492.77-1.242 1.385-2.254 1.85-1.013.46-2.204.69-3.575.69-1.86 0-3.456-.463-4.765-1.385-1.308-.927-1.93-2.427-1.855-4.51m20.67-3.98h9.083c.012-.286.016-.49.016-.61 0-1.38-.35-2.44-1.038-3.176-.695-.735-1.582-1.106-2.668-1.106-1.176 0-2.25.41-3.223 1.22-.97.81-1.69 2.03-2.17 3.67m8.016 4.007l2.68.273c-.387 1.33-1.273 2.595-2.66 3.79-1.383 1.203-3.035 1.8-4.957 1.8-1.197 0-2.3-.276-3.3-.83-1-.556-1.76-1.356-2.283-2.415-.52-1.054-.78-2.257-.78-3.61 0-1.764.405-3.48 1.22-5.14.822-1.66 1.88-2.893 3.18-3.7a7.82 7.82 0 0 1 4.216-1.21c1.933 0 3.472.6 4.625 1.798 1.15 1.196 1.73 2.83 1.73 4.9 0 .796-.076 1.61-.217 2.44h-11.91a6.375 6.375 0 0 0-.06.85c0 1.518.35 2.67 1.048 3.467.69.8 1.547 1.194 2.547 1.194.946 0 1.876-.302 2.79-.923.914-.62 1.625-1.512 2.133-2.68m5.993 5.492l3.384-16.177h2.5l-.595 2.82c1.084-1.11 2.1-1.918 3.04-2.425.946-.505 1.91-.763 2.896-.763 1.312 0 2.34.36 3.085 1.07.75.708 1.124 1.66 1.124 2.85 0 .596-.133 1.542-.4 2.83L204.7 51.84h-2.76l2.15-10.25c.21-.996.315-1.735.315-2.207 0-.54-.18-.978-.55-1.314-.375-.34-.91-.5-1.614-.5-1.41 0-2.66.504-3.762 1.52-1.1 1.014-1.91 2.753-2.43 5.22l-1.57 7.524zm29.76-22.47h4.646l-2.56 12.276-.635 3.022a4.77 4.77 0 0 0-.06.723c0 .897.324 1.635.976 2.21.652.585 1.602.874 2.848.874 1.12 0 2.043-.207 2.773-.63.734-.425 1.296-1.046 1.7-1.882.4-.83.803-2.244 1.213-4.236l2.59-12.356h4.646l-2.575 12.367c-.54 2.603-1.17 4.595-1.88 5.97-.71 1.38-1.78 2.5-3.222 3.363-1.44.86-3.263 1.295-5.46 1.295-2.63 0-4.647-.648-6.045-1.937-1.4-1.29-2.1-2.946-2.1-4.973 0-.422.035-.88.11-1.375.04-.328.22-1.26.54-2.805zm21.1 22.6l4.74-22.606h4.64l-4.72 22.605z"/></g></svg>