<?xml version="1.0" encoding="UTF-8" standalone="no"?>
<svg id="svg3422" xmlns:rdf="http://www.w3.org/1999/02/22-rdf-syntax-ns#" xmlns="http://www.w3.org/2000/svg" height="42.395pt" viewBox="0 0 192.12129 42.394604" width="192.12pt" version="1.1" xmlns:cc="http://creativecommons.org/ns#" xmlns:dc="http://purl.org/dc/elements/1.1/">
 <metadata id="metadata4209">
  <rdf:RDF>
   <cc:Work rdf:about="">
    <dc:format>image/svg+xml</dc:format>
    <dc:type rdf:resource="http://purl.org/dc/dcmitype/StillImage"/>
    <dc:title/>
   </cc:Work>
  </rdf:RDF>
 </metadata>
 <defs id="defs3424"></defs>
 <g id="surface9085" transform="translate(-485.04 -123.67)">
  <g id="g4894" fill="#ff1930">
   <path id="path3779" d="m523.08 139.46c1.0391 1.0664 1.9883 2.4375 2.3945 3.8516 1.9219 6.7617-5.207 14.539-15.68 17.52-10.473 2.9766-20.625 0.11328-22.551-6.6524-0.39844-1.4141-0.3125-3.0781 0.0117-4.5312 0.52734-2.3398-3.2852 2.7109-1.9102 7.5547 2.2266 7.832 13.094 10.906 25.223 7.457 12.129-3.4492 20.336-11.949 18.109-19.781-1.375-4.8398-7.2734-7.1328-5.5977-5.418"/>
   <path id="path3781" d="m523.16 123.68c-6.5703 6.918 3.0234 21.734-11.289 28.703 7.707-10.262 1.7031-21.891 3.4922-25.422 1.7891-3.5352 7.7969-3.2812 7.7969-3.2812"/>
   <path id="path3783" d="m512.64 126.38c-5.3789 7.832-0.30078 20.113-3.6484 24.793-3.3438 4.6797-6.8008 1.1484-7.2852-0.0352 7.5117 4-4.7461-18.492 10.934-24.758"/>
   <path id="path3785" d="m508.38 151.92c-3.9336 4.1523-10.109 3.6602-17.633 1.6992 3.3281-3.9844 1.293-9.3594 2.1523-14.344 0.81641-4.7344 5.6484-8.8594 11.055-10.449-6.7148 5.4648-6.0078 14.816-4.9336 18.469 1.957 6.6562 9.3594 4.625 9.3594 4.625"/>
   <path id="path3787" d="m542.98 150.43c0 1.3086 0.26953 2.5117 0.81641 3.6094 0.53906 1.0976 1.3516 1.9531 2.4258 2.5703 1.0742 0.625 2.2109 0.93359 3.3984 0.93359 1.1445 0 2.2383-0.27343 3.2734-0.8164 1.0391-0.54297 1.9609-1.3008 2.7812-2.2695 0.81641-0.96875 1.4609-2.1641 1.9336-3.5781 0.47265-1.418 0.70703-2.8125 0.70703-4.1797 0-2.2266-0.62109-3.9961-1.8633-5.3164-1.2461-1.3203-2.7812-1.9805-4.6094-1.9805-2.3359 0-4.3984 0.99609-6.1836 2.9922-1.7891 1.9922-2.6797 4.6758-2.6797 8.0352m-2.9414-0.15234c0-3.9805 1.1523-7.2031 3.4531-9.668 2.2969-2.457 5.0859-3.6914 8.3672-3.6914 2.7852 0 5.0508 0.90625 6.8008 2.7188 1.7539 1.8125 2.6289 4.2422 2.6289 7.2891 0 2.1719-0.44141 4.1875-1.3281 6.0469-0.66016 1.3906-1.4922 2.5898-2.5 3.6016-1 1.0117-2.0781 1.793-3.2227 2.3398-1.5273 0.73047-3.1406 1.0938-4.8476 1.0938-1.7891 0-3.4141-0.42578-4.8828-1.2774-1.4648-0.85546-2.5781-2.043-3.332-3.5742-0.75781-1.5274-1.1367-3.1524-1.1367-4.8789"/>
   <path id="path3789" d="m563.64 159.63 3.3789-16.176h2.5l-0.59375 2.8203c1.082-1.1094 2.0976-1.918 3.0469-2.4258 0.94141-0.50781 1.9062-0.76172 2.8906-0.76172 1.3086 0 2.3398 0.35547 3.0859 1.0664 0.7461 0.71094 1.1211 1.6602 1.1211 2.8477 0 0.60156-0.13672 1.543-0.39844 2.8359l-2.0547 9.793h-2.7578l2.1484-10.25c0.21094-0.99609 0.3164-1.7344 0.3164-2.2109 0-0.53906-0.18359-0.97265-0.55468-1.3086-0.36719-0.33594-0.90625-0.50391-1.6055-0.50391-1.4141 0-2.668 0.50782-3.7695 1.5234-1.1055 1.0156-1.9102 2.7578-2.4336 5.2266l-1.5625 7.5234z"/>
   <path id="path3791" d="m582.25 154.1 2.7578-0.16797c0 0.79297 0.11719 1.4727 0.36328 2.0274 0.24219 0.55859 0.69141 1.0156 1.3477 1.3711 0.65234 0.35547 1.418 0.53516 2.2891 0.53516 1.2227 0 2.1367-0.2461 2.7461-0.73438 0.60546-0.48437 0.91406-1.0586 0.91406-1.7226 0-0.47266-0.1875-0.92579-0.55078-1.3516-0.375-0.42968-1.293-0.95312-2.75-1.5781-1.457-0.625-2.3906-1.0625-2.793-1.3164-0.6836-0.41797-1.1953-0.91015-1.5391-1.4726-0.34375-0.5625-0.51954-1.207-0.51954-1.9414 0-1.2773 0.50782-2.375 1.5234-3.2891 1.0195-0.91407 2.4375-1.3711 4.2656-1.3711 2.0312 0 3.5781 0.46875 4.6367 1.4102 1.0625 0.9375 1.6133 2.1758 1.6562 3.707l-2.6992 0.18359c-0.0391-0.97656-0.38282-1.7461-1.0352-2.3125-0.64844-0.57031-1.5664-0.85546-2.7578-0.85546-0.95313 0-1.6914 0.21875-2.2227 0.65625-0.52734 0.4375-0.78906 0.91015-0.78906 1.4141 0 0.51172 0.22656 0.95703 0.68359 1.3438 0.30469 0.26172 1.0898 0.66797 2.3594 1.2148 2.1133 0.91797 3.4414 1.6367 3.9922 2.1641 0.87109 0.84375 1.3086 1.8711 1.3086 3.0781 0 0.80078-0.24609 1.5898-0.73828 2.3594-0.49219 0.77344-1.2422 1.3906-2.2539 1.8516-1.0117 0.46093-2.2031 0.6914-3.5742 0.6914-1.8633 0-3.457-0.46093-4.7656-1.3867-1.3086-0.92187-1.9297-2.4258-1.8555-4.5078"/>
   <path id="path3793" d="m602.92 150.13h9.082c0.0117-0.28516 0.0156-0.48829 0.0156-0.60938 0-1.3828-0.34765-2.4414-1.0352-3.1797-0.69531-0.73437-1.582-1.1016-2.668-1.1016-1.1758 0-2.25 0.40625-3.2227 1.2188-0.96875 0.8125-1.6914 2.0352-2.1719 3.6719m8.0156 4.0039 2.6797 0.27344c-0.38672 1.332-1.2734 2.5938-2.6602 3.793-1.3828 1.1992-3.0352 1.7969-4.957 1.7969-1.1953 0-2.2969-0.27343-3.2969-0.82812s-1.7617-1.3594-2.2852-2.4141c-0.51953-1.0586-0.78125-2.2617-0.78125-3.6094 0-1.7695 0.40625-3.4805 1.2227-5.1445 0.82031-1.6602 1.8789-2.8906 3.1797-3.6992 1.2969-0.80469 2.7031-1.2109 4.2148-1.2109 1.9336 0 3.4727 0.60157 4.625 1.7969 1.1523 1.1992 1.7305 2.832 1.7305 4.9062 0 0.79297-0.0742 1.6055-0.21485 2.4375h-11.91c-0.043 0.3164-0.0625 0.60156-0.0625 0.85156 0 1.5117 0.34765 2.668 1.0469 3.4648 0.69141 0.79688 1.5469 1.1953 2.5469 1.1953 0.94531 0 1.875-0.3086 2.7891-0.92969 0.91406-0.61719 1.625-1.5117 2.1328-2.6797"/>
   <path id="path3795" d="m616.93 159.63 3.3828-16.176h2.5l-0.59375 2.8203c1.0859-1.1094 2.1016-1.918 3.043-2.4258 0.94531-0.50781 1.9102-0.76172 2.8945-0.76172 1.3125 0 2.3398 0.35547 3.0859 1.0664 0.74609 0.71094 1.1211 1.6602 1.1211 2.8477 0 0.60156-0.13281 1.543-0.39844 2.8359l-2.0547 9.793h-2.7578l2.1484-10.25c0.21094-0.99609 0.31641-1.7344 0.31641-2.2109 0-0.53906-0.17969-0.97265-0.55078-1.3086-0.375-0.33594-0.91016-0.50391-1.6133-0.50391-1.4102 0-2.6641 0.50782-3.7656 1.5234-1.1016 1.0156-1.9102 2.7578-2.4297 5.2266l-1.5703 7.5234z"/>
   <path id="path3797" d="m646.69 137.16h4.6445l-2.5586 12.277-0.63672 3.0195c-0.0391 0.25782-0.0586 0.5-0.0586 0.72657 0 0.89062 0.32422 1.6328 0.97656 2.2109 0.65235 0.58204 1.6016 0.8711 2.8477 0.8711 1.1211 0 2.043-0.21094 2.7734-0.63281 0.73437-0.42188 1.2969-1.0469 1.6992-1.8789 0.39843-0.83203 0.80468-2.2461 1.2148-4.2422l2.5898-12.352h4.6445l-2.5742 12.367c-0.54297 2.6016-1.1719 4.5898-1.8789 5.9648-0.71094 1.3828-1.7852 2.5-3.2266 3.3672-1.4375 0.85937-3.2617 1.293-5.4609 1.293-2.6289 0-4.6445-0.64453-6.043-1.9336-1.3984-1.293-2.0977-2.9492-2.0977-4.9766 0-0.42187 0.0352-0.87891 0.10938-1.3711 0.0391-0.32813 0.21875-1.2656 0.53906-2.8047z"/>
   <path id="path3799" d="m667.79 159.76 4.7383-22.605h4.6406l-4.7226 22.605z"/>
  </g>
 </g>
</svg>
