<svg xmlns="http://www.w3.org/2000/svg" height="56.527" viewBox="0 0 192.12129 42.394604" width="256.16"><g fill="#ff1930"><path d="M38.04 15.79c1.04 1.066 1.988 2.438 2.395 3.852 1.92 6.76-5.207 14.54-15.68 17.52-10.473 2.976-20.625.113-22.55-6.653-.4-1.42-.314-3.08.01-4.536.528-2.34-3.285 2.71-1.91 7.555 2.227 7.834 13.095 10.91 25.223 7.46 12.13-3.45 20.336-11.95 18.11-19.78-1.376-4.84-7.274-7.135-5.6-5.42"/><path d="M38.12.01c-6.57 6.918 3.023 21.734-11.29 28.703 7.71-10.263 1.705-21.89 3.494-25.423C32.114-.243 38.12.01 38.12.01M27.6 2.71c-5.38 7.832-.3 20.113-3.648 24.793-3.344 4.68-6.8 1.148-7.286-.035 7.512 4-4.746-18.492 10.934-24.758"/><path d="M23.34 28.25c-3.934 4.152-10.11 3.66-17.633 1.7C9.035 25.964 7 20.59 7.86 15.604c.816-4.734 5.648-8.86 11.054-10.45-6.715 5.466-6.008 14.817-4.933 18.47 1.96 6.656 9.36 4.625 9.36 4.625m34.6-1.49c0 1.31.27 2.51.82 3.61a5.926 5.926 0 0 0 2.425 2.57 6.662 6.662 0 0 0 3.4.93 6.96 6.96 0 0 0 3.272-.816c1.04-.543 1.96-1.3 2.78-2.27.818-.968 1.462-2.164 1.935-3.578.47-1.42.706-2.814.706-4.18 0-2.228-.62-3.998-1.863-5.318-1.247-1.32-2.782-1.98-4.61-1.98-2.336 0-4.398.995-6.183 2.99-1.79 1.993-2.68 4.677-2.68 8.036m-2.944-.153c0-3.98 1.153-7.202 3.454-9.667 2.297-2.458 5.086-3.693 8.368-3.693 2.784 0 5.05.907 6.8 2.72 1.753 1.812 2.628 4.24 2.628 7.288 0 2.173-.44 4.19-1.328 6.048-.66 1.39-1.492 2.59-2.5 3.602-1 1.01-2.078 1.793-3.222 2.34a11.086 11.086 0 0 1-4.848 1.093c-1.79 0-3.414-.424-4.883-1.276a8.3 8.3 0 0 1-3.332-3.573A10.827 10.827 0 0 1 55 26.608m23.6 9.353l3.38-16.176h2.5l-.595 2.82c1.082-1.11 2.098-1.918 3.047-2.426.94-.507 1.906-.76 2.89-.76 1.31 0 2.34.354 3.087 1.065.74.71 1.12 1.66 1.12 2.848 0 .606-.14 1.548-.4 2.84l-2.057 9.794H88.82l2.147-10.25c.21-.995.317-1.734.317-2.21 0-.54-.184-.973-.555-1.31-.37-.335-.91-.503-1.61-.503-1.415 0-2.67.508-3.77 1.524-1.106 1.016-1.91 2.76-2.434 5.227l-1.563 7.525zm18.61-5.53l2.758-.168c0 .793.117 1.473.363 2.027.247.554.696 1.01 1.35 1.37.65.352 1.42.532 2.29.532 1.225 0 2.14-.246 2.748-.735.605-.484.914-1.058.914-1.72 0-.475-.187-.928-.55-1.354-.376-.43-1.294-.953-2.75-1.578-1.46-.627-2.39-1.064-2.794-1.318-.683-.418-1.195-.91-1.54-1.473-.343-.563-.518-1.208-.518-1.94 0-1.28.507-2.377 1.523-3.29 1.02-.916 2.438-1.373 4.266-1.373 2.03 0 3.577.47 4.635 1.41 1.066.94 1.617 2.177 1.66 3.71l-2.7.182c-.04-.977-.383-1.747-1.035-2.313-.648-.57-1.566-.857-2.758-.857-.954 0-1.69.22-2.223.656-.53.437-.79.91-.79 1.414 0 .51.226.958.683 1.344.305.262 1.09.67 2.36 1.215 2.113.917 3.44 1.636 3.99 2.163.87.843 1.31 1.87 1.31 3.077 0 .8-.247 1.59-.74 2.36-.493.774-1.243 1.39-2.255 1.85-1.012.463-2.203.694-3.574.694-1.86 0-3.455-.46-4.764-1.387-1.308-.922-1.93-2.426-1.855-4.508m20.67-3.97h9.083c.012-.285.016-.488.016-.61 0-1.382-.35-2.44-1.037-3.18-.695-.733-1.582-1.1-2.668-1.1-1.176 0-2.25.406-3.223 1.218-.97.813-1.692 2.035-2.172 3.672m8.016 4.004l2.68.272c-.386 1.332-1.272 2.594-2.66 3.793-1.382 1.2-3.034 1.798-4.956 1.798-1.196 0-2.298-.273-3.298-.828s-1.76-1.36-2.282-2.416c-.52-1.06-.78-2.263-.78-3.61 0-1.77.405-3.48 1.22-5.145.822-1.66 1.88-2.89 3.18-3.7a7.854 7.854 0 0 1 4.216-1.21c1.933 0 3.472.6 4.625 1.797 1.15 1.2 1.73 2.833 1.73 4.907 0 .792-.074 1.605-.215 2.437h-11.91a6.375 6.375 0 0 0-.062.85c0 1.514.35 2.67 1.048 3.467.69.797 1.548 1.195 2.548 1.195.945 0 1.875-.308 2.79-.93.913-.617 1.624-1.51 2.132-2.68m5.992 5.497l3.383-16.177h2.5l-.593 2.82c1.086-1.11 2.1-1.92 3.04-2.427.948-.508 1.91-.76 2.898-.76 1.312 0 2.34.353 3.085 1.064.748.71 1.123 1.66 1.123 2.848 0 .603-.133 1.545-.4 2.838l-2.054 9.793h-2.758l2.148-10.25c.213-.996.318-1.735.318-2.21 0-.54-.18-.974-.55-1.31-.374-.336-.91-.504-1.613-.504-1.41 0-2.664.508-3.765 1.524-1.103 1.016-1.91 2.76-2.43 5.227l-1.57 7.525zm29.76-22.47h4.645l-2.56 12.276-.636 3.02c-.04.256-.06.5-.06.725 0 .89.326 1.634.978 2.21.652.584 1.602.873 2.848.873 1.12 0 2.043-.21 2.773-.633.734-.422 1.296-1.047 1.7-1.88.397-.83.803-2.245 1.213-4.24l2.59-12.353h4.645l-2.576 12.366c-.543 2.6-1.17 4.59-1.88 5.964-.71 1.384-1.784 2.5-3.225 3.368-1.44.86-3.263 1.293-5.46 1.293-2.63 0-4.647-.64-6.045-1.93-1.398-1.293-2.098-2.95-2.098-4.977 0-.42.035-.877.11-1.37.04-.327.218-1.265.54-2.804zm21.1 22.6l4.738-22.606h4.64l-4.722 22.605z"/></g></svg>