<svg xmlns="http://www.w3.org/2000/svg" height="245.667" viewBox="0 0 184.25001 184.24998" width="245.667" xmlns:xlink="http://www.w3.org/1999/xlink"><defs><symbol id="a" overflow="visible"><path d="M2.28-7.5c0-3.188.923-5.766 2.767-7.734 1.844-1.977 4.078-2.97 6.703-2.97 2.227 0 4.047.73 5.453 2.188 1.406 1.45 2.11 3.39 2.11 5.828 0 1.75-.356 3.37-1.063 4.86a10.495 10.495 0 0 1-2 2.89c-.805.805-1.668 1.422-2.594 1.86a8.728 8.728 0 0 1-3.874.89C8.345.312 7.036-.03 5.86-.718a6.79 6.79 0 0 1-2.67-2.86A8.745 8.745 0 0 1 2.28-7.5zm2.36.125c0 1.055.212 2.023.64 2.906A4.826 4.826 0 0 0 7.234-2.4a5.492 5.492 0 0 0 5.344.078 7.493 7.493 0 0 0 2.234-1.813c.656-.78 1.17-1.74 1.546-2.875.382-1.132.578-2.25.578-3.343 0-1.78-.5-3.202-1.5-4.264s-2.23-1.593-3.688-1.593c-1.875 0-3.53.806-4.97 2.407-1.428 1.606-2.14 3.75-2.14 6.438z"/></symbol><symbol id="b" overflow="visible"><path d="M.828 0l2.72-12.97h2l-.485 2.267c.875-.883 1.687-1.532 2.437-1.938a4.835 4.835 0 0 1 2.328-.61c1.05 0 1.875.29 2.47.86.6.56.905 1.32.905 2.26 0 .48-.11 1.24-.328 2.28L11.235 0h-2.22l1.735-8.22c.164-.788.25-1.378.25-1.765 0-.426-.152-.773-.453-1.047-.293-.27-.72-.406-1.28-.406-1.138 0-2.15.406-3.032 1.22-.875.81-1.524 2.21-1.938 4.186L3.047 0z"/></symbol><symbol id="c" overflow="visible"><path d="M1.03-4.438l2.22-.125c0 .637.094 1.18.28 1.625.197.45.556.813 1.08 1.094.53.282 1.144.422 1.843.422.977 0 1.71-.19 2.203-.578.49-.394.735-.85.735-1.375 0-.383-.142-.75-.43-1.094-.306-.34-1.04-.76-2.204-1.26-1.167-.5-1.917-.85-2.25-1.045C3.96-7.11 3.55-7.502 3.27-7.95c-.275-.457-.408-.977-.408-1.563 0-1.03.406-1.91 1.218-2.64.812-.727 1.953-1.094 3.422-1.094 1.625 0 2.86.376 3.703 1.126.852.75 1.297 1.74 1.328 2.97l-2.154.14c-.03-.786-.31-1.4-.83-1.85-.526-.455-1.26-.685-2.206-.685-.774 0-1.37.18-1.797.53-.418.345-.625.72-.625 1.126s.18.765.547 1.077c.236.21.865.53 1.89.97 1.694.74 2.764 1.32 3.202 1.732.695.68 1.046 1.5 1.046 2.47 0 .645-.2 1.28-.595 1.902-.4.618-1 1.11-1.813 1.485-.804.36-1.758.544-2.86.544-1.49 0-2.76-.367-3.812-1.11-1.05-.73-1.55-1.94-1.5-3.62z"/></symbol><symbol id="d" overflow="visible"><path d="M10.36-4.406l2.14.218c-.313 1.063-1.027 2.08-2.14 3.047C9.253-.18 7.93.29 6.39.29c-.96 0-1.84-.22-2.64-.656A4.347 4.347 0 0 1 1.922-2.3c-.418-.85-.625-1.82-.625-2.906 0-1.414.328-2.785.984-4.11.66-1.33 1.51-2.32 2.55-2.968a6.287 6.287 0 0 1 3.38-.97c1.54 0 2.773.48 3.702 1.437.926.96 1.39 2.265 1.39 3.92 0 .638-.06 1.29-.17 1.955H3.58c-.03.26-.048.492-.048.687 0 1.21.276 2.136.83 2.78.563.637 1.243.953 2.047.953.754 0 1.5-.242 2.23-.734.73-.5 1.3-1.22 1.72-2.157zm-6.422-3.22h7.265c.008-.218.016-.378.016-.483 0-1.1-.28-1.94-.83-2.53-.56-.59-1.27-.89-2.14-.89-.94 0-1.8.33-2.58.99-.78.648-1.36 1.62-1.74 2.92z"/></symbol><symbol id="e" overflow="visible"><path d="M4.97-18.61h3.81L6.673-8.5l-.516 2.484c-.03.21-.047.407-.047.594 0 .742.265 1.352.796 1.828.54.48 1.32.72 2.344.72.926 0 1.688-.173 2.28-.517.603-.358 1.072-.88 1.407-1.57.332-.687.664-1.847 1-3.484l2.14-10.17h3.814L17.79-8.44c-.46 2.15-.98 3.79-1.563 4.922-.585 1.138-1.47 2.06-2.656 2.766C12.383-.042 10.893.31 9.08.31c-2.17 0-3.83-.53-4.986-1.593-1.15-1.064-1.72-2.428-1.72-4.096 0-.34.032-.713.095-1.12.03-.27.17-1.04.43-2.313z"/></symbol><symbol id="f" overflow="visible"><path d="M.906 0l3.89-18.61h3.83L4.733 0z"/></symbol></defs><path fill="#fff" d="M184.25 184.25H0V0h184.25z"/><g fill="#ff1930"><path d="M135.33 58.51c2.81 2.87 5.367 6.562 6.45 10.367 5.187 18.23-14.013 39.188-42.243 47.215-28.223 8.027-55.574.305-60.762-17.922-1.082-3.81-.847-8.293.03-12.22 1.412-6.292-8.866 7.317-5.155 20.364 6.004 21.105 35.29 29.39 67.973 20.094 32.68-9.293 54.805-32.195 48.805-53.3-3.71-13.052-19.61-19.216-15.098-14.6"/><path d="M135.56 15.96c-17.707 18.64 8.148 58.56-30.426 77.348 20.777-27.656 4.602-58.996 9.418-68.512 4.816-9.52 21.008-8.836 21.008-8.836m-28.36 7.29c-14.492 21.098-.81 54.19-9.824 66.8-9.024 12.61-18.332 3.103-19.64-.097 20.244 10.78-12.78-49.828 29.464-66.703"/><path d="M95.74 92.07c-10.605 11.184-27.25 9.863-47.508 4.578 8.965-10.738 3.477-25.223 5.79-38.656 2.194-12.758 15.226-23.87 29.792-28.152C65.716 44.563 67.63 69.762 70.52 79.61c5.27 17.938 25.22 12.46 25.22 12.46"/><use xlink:href="#a" height="100%" width="100%" y="266.25" x="154.776" transform="translate(-121.89 -107.72)"/><use xlink:href="#b" height="100%" width="100%" y="266.25" x="175.438" transform="translate(-121.89 -107.72)"/><use xlink:href="#c" height="100%" width="100%" y="266.25" x="190.345" transform="translate(-121.89 -107.72)"/><use xlink:href="#d" height="100%" width="100%" y="266.25" x="204.213" transform="translate(-121.89 -107.72)"/><use xlink:href="#b" height="100%" width="100%" y="266.25" x="218.74" transform="translate(-121.89 -107.72)"/><use xlink:href="#e" height="100%" width="100%" y="266.25" x="232.582" transform="translate(-121.89 -107.72)"/><use xlink:href="#e" height="100%" width="100%" y="266.357" x="238.872" transform="translate(-121.89 -107.72)"/><use xlink:href="#f" height="100%" width="100%" y="266.357" x="260.022" transform="translate(-121.89 -107.72)"/></g><use xlink:href="#e" height="100%" width="100%" y="507.196" x="232.581" transform="translate(-121.89 -107.72)" fill="#fff"/></svg>