<svg xmlns="http://www.w3.org/2000/svg" height="103.937" viewBox="0 0 311.81249 77.953125" width="415.747"><path d="M311.81 77.95H0V-.003h311.81z" fill="#ff1930"/><g fill="#fff"><path d="M97.88 31.68c1.04 1.07 1.988 2.437 2.395 3.852 1.92 6.76-5.207 14.54-15.68 17.52-10.473 2.976-20.625.113-22.55-6.653-.4-1.41-.314-3.08.01-4.532.528-2.336-3.285 2.71-1.91 7.555 2.227 7.832 13.094 10.906 25.223 7.457 12.13-3.45 20.336-11.95 18.11-19.78-1.376-4.84-7.274-7.13-5.6-5.42"/><path d="M97.96 15.89c-6.57 6.918 3.023 21.734-11.29 28.707 7.708-10.266 1.704-21.895 3.493-25.426 1.79-3.53 7.797-3.28 7.797-3.28M87.44 18.59c-5.38 7.828-.3 20.11-3.648 24.793-3.344 4.676-6.8 1.148-7.286-.04 7.512 4-4.746-18.49 10.934-24.753"/><path d="M83.18 44.13c-3.934 4.148-10.11 3.656-17.633 1.695 3.328-3.984 1.293-9.36 2.152-14.344.816-4.733 5.648-8.858 11.054-10.444-6.715 5.46-6.008 14.812-4.933 18.47 1.958 6.655 9.36 4.624 9.36 4.624M117.78 42.64c0 1.31.27 2.512.816 3.61.54 1.097 1.352 1.953 2.426 2.574 1.074.62 2.21.93 3.4.93a6.96 6.96 0 0 0 3.272-.817c1.04-.543 1.96-1.3 2.78-2.27.818-.968 1.462-2.16 1.935-3.578.47-1.42.706-2.81.706-4.18 0-2.227-.62-3.997-1.863-5.317-1.247-1.32-2.782-1.98-4.61-1.98-2.336 0-4.398 1-6.183 2.992-1.79 1.996-2.68 4.676-2.68 8.035m-2.942-.152c0-3.98 1.153-7.203 3.454-9.664 2.296-2.46 5.085-3.692 8.367-3.692 2.784 0 5.05.903 6.8 2.715 1.753 1.813 2.628 4.246 2.628 7.29 0 2.175-.44 4.19-1.328 6.046-.66 1.395-1.492 2.594-2.5 3.602-1 1.01-2.078 1.793-3.222 2.34a11.09 11.09 0 0 1-4.848 1.097c-1.79 0-3.414-.426-4.883-1.28a8.29 8.29 0 0 1-3.332-3.57 10.843 10.843 0 0 1-1.136-4.884M138.44 51.84l3.38-16.176h2.5l-.595 2.82c1.082-1.11 2.098-1.918 3.047-2.425.94-.505 1.906-.763 2.89-.763 1.31 0 2.34.36 3.087 1.07.745.707 1.12 1.66 1.12 2.848 0 .597-.137 1.543-.4 2.832l-2.053 9.793h-2.758l2.147-10.25c.21-.996.317-1.735.317-2.207 0-.54-.184-.977-.555-1.313-.368-.336-.907-.5-1.607-.5-1.414 0-2.668.508-3.77 1.524-1.105 1.015-1.91 2.754-2.433 5.222l-1.562 7.524zM157.05 46.32l2.758-.168c0 .793.117 1.47.363 2.023.243.56.692 1.016 1.35 1.375.65.352 1.417.532 2.288.532 1.223 0 2.137-.246 2.746-.73.605-.49.914-1.063.914-1.723 0-.478-.187-.93-.55-1.357-.376-.426-1.294-.95-2.75-1.574-1.458-.626-2.39-1.068-2.794-1.318-.683-.418-1.195-.91-1.54-1.472-.343-.567-.518-1.21-.518-1.942 0-1.28.507-2.38 1.523-3.29 1.02-.917 2.437-1.374 4.265-1.374 2.03 0 3.578.473 4.636 1.41 1.064.942 1.615 2.176 1.658 3.71l-2.7.185c-.04-.978-.382-1.747-1.035-2.318-.648-.57-1.566-.855-2.758-.855-.953 0-1.69.22-2.222.656-.528.438-.79.91-.79 1.418 0 .51.227.954.684 1.34.305.263 1.09.67 2.36 1.22 2.113.914 3.44 1.637 3.992 2.164.87.84 1.307 1.867 1.307 3.074 0 .8-.246 1.59-.738 2.363-.493.77-1.243 1.388-2.255 1.85-1.012.46-2.203.694-3.574.694-1.862 0-3.456-.464-4.765-1.386-1.308-.926-1.93-2.426-1.855-4.508M177.72 42.34h9.082c.012-.285.016-.488.016-.61 0-1.378-.348-2.437-1.036-3.175-.695-.735-1.582-1.106-2.668-1.106-1.175 0-2.25.41-3.222 1.222-.97.81-1.692 2.03-2.172 3.668m8.015 4.008l2.68.273c-.387 1.33-1.273 2.595-2.66 3.79-1.383 1.203-3.035 1.8-4.957 1.8-1.195 0-2.297-.276-3.297-.83-1-.556-1.76-1.356-2.284-2.415-.52-1.055-.78-2.258-.78-3.61 0-1.765.405-3.48 1.22-5.14.822-1.66 1.88-2.894 3.18-3.7a7.82 7.82 0 0 1 4.216-1.21c1.933 0 3.472.598 4.625 1.797 1.152 1.195 1.73 2.832 1.73 4.902 0 .793-.074 1.606-.215 2.438h-11.91a6.375 6.375 0 0 0-.062.85c0 1.517.348 2.67 1.047 3.466.69.8 1.547 1.195 2.547 1.195.945 0 1.875-.304 2.79-.925.913-.62 1.624-1.512 2.132-2.68M191.73 51.84l3.383-16.176h2.5l-.594 2.82c1.085-1.11 2.1-1.918 3.042-2.425.945-.505 1.91-.763 2.895-.763 1.312 0 2.34.36 3.085 1.07.747.707 1.122 1.66 1.122 2.848 0 .597-.133 1.543-.4 2.832l-2.054 9.793h-2.757l2.148-10.25c.212-.996.317-1.735.317-2.207 0-.54-.18-.977-.55-1.313-.375-.336-.91-.5-1.614-.5-1.41 0-2.664.508-3.765 1.524-1.102 1.015-1.91 2.754-2.43 5.222l-1.57 7.524zM221.49 29.37h4.645l-2.56 12.277-.636 3.023a4.77 4.77 0 0 0-.06.723c0 .895.325 1.633.977 2.21.652.583 1.602.872 2.848.872 1.12 0 2.043-.207 2.773-.63.735-.425 1.297-1.046 1.7-1.882.398-.832.804-2.246 1.214-4.238l2.59-12.355h4.645l-2.575 12.367c-.543 2.602-1.172 4.594-1.88 5.97-.71 1.378-1.784 2.5-3.225 3.362-1.438.862-3.262 1.296-5.46 1.296-2.63 0-4.646-.648-6.044-1.937-1.398-1.29-2.098-2.947-2.098-4.974 0-.422.035-.88.11-1.375.04-.327.218-1.26.54-2.804zM242.59 51.97l4.738-22.605h4.64l-4.722 22.605z"/></g></svg>