<?xml version="1.0" encoding="UTF-8" standalone="no"?>
<svg id="svg3422" xmlns:rdf="http://www.w3.org/1999/02/22-rdf-syntax-ns#" xmlns="http://www.w3.org/2000/svg" height="77.953pt" viewBox="0 0 311.81249 77.953125" width="311.81pt" version="1.1" xmlns:cc="http://creativecommons.org/ns#" xmlns:dc="http://purl.org/dc/elements/1.1/">
 <metadata id="metadata4209">
  <rdf:RDF>
   <cc:Work rdf:about="">
    <dc:format>image/svg+xml</dc:format>
    <dc:type rdf:resource="http://purl.org/dc/dcmitype/StillImage"/>
    <dc:title/>
   </cc:Work>
  </rdf:RDF>
 </metadata>
 <defs id="defs3424"></defs>
 <g id="surface9085" transform="translate(-425.2 -214.02)">
  <g id="g8002" fill="#ff1930">
   <path id="path3777" d="m737.01 291.97h-311.81v-77.953h311.81z"/>
  </g>
  <g id="g8016" fill="#fff">
   <path id="path3801" d="m523.08 245.7c1.0391 1.0703 1.9883 2.4375 2.3945 3.8516 1.9219 6.7617-5.207 14.539-15.68 17.52-10.473 2.9766-20.625 0.11328-22.551-6.6524-0.39844-1.4102-0.3125-3.0781 0.0117-4.5312 0.52734-2.3359-3.2852 2.7109-1.9102 7.5547 2.2266 7.832 13.094 10.906 25.223 7.457 12.129-3.4492 20.336-11.949 18.109-19.781-1.375-4.8398-7.2734-7.1289-5.5977-5.418"/>
   <path id="path3803" d="m523.16 229.91c-6.5703 6.918 3.0234 21.734-11.289 28.707 7.707-10.266 1.7031-21.895 3.4922-25.426 1.7891-3.5312 7.7969-3.2812 7.7969-3.2812"/>
   <path id="path3805" d="m512.64 232.61c-5.3789 7.8281-0.30078 20.109-3.6484 24.793-3.3438 4.6758-6.8008 1.1484-7.2852-0.0391 7.5117 4-4.7461-18.492 10.934-24.754"/>
   <path id="path3807" d="m508.38 258.15c-3.9336 4.1484-10.109 3.6562-17.633 1.6953 3.3281-3.9844 1.293-9.3594 2.1523-14.344 0.81641-4.7344 5.6484-8.8594 11.055-10.445-6.7148 5.4609-6.0078 14.812-4.9336 18.469 1.957 6.6562 9.3594 4.625 9.3594 4.625"/>
   <path id="path3809" d="m542.98 256.66c0 1.3086 0.26953 2.5117 0.81641 3.6094 0.53906 1.0976 1.3516 1.9531 2.4258 2.5742 1.0742 0.62109 2.2109 0.92968 3.3984 0.92968 1.1445 0 2.2383-0.27343 3.2734-0.8164 1.0391-0.54297 1.9609-1.3008 2.7812-2.2695 0.81641-0.96875 1.4609-2.1602 1.9336-3.5781 0.47265-1.418 0.70703-2.8086 0.70703-4.1797 0-2.2266-0.62109-3.9961-1.8633-5.3164-1.2461-1.3203-2.7812-1.9805-4.6094-1.9805-2.3359 0-4.3984 1-6.1836 2.9922-1.7891 1.9961-2.6797 4.6758-2.6797 8.0352m-2.9414-0.15234c0-3.9805 1.1523-7.2031 3.4531-9.6641 2.2969-2.4609 5.0859-3.6914 8.3672-3.6914 2.7852 0 5.0508 0.90234 6.8008 2.7148 1.7539 1.8125 2.6289 4.2461 2.6289 7.2891 0 2.1758-0.44141 4.1914-1.3281 6.0469-0.66016 1.3945-1.4922 2.5938-2.5 3.6016-1 1.0117-2.0781 1.793-3.2227 2.3398-1.5273 0.73047-3.1406 1.0976-4.8476 1.0976-1.7891 0-3.4141-0.42578-4.8828-1.2812-1.4648-0.85156-2.5781-2.043-3.332-3.5703-0.75781-1.5273-1.1367-3.1562-1.1367-4.8828"/>
   <path id="path3811" d="m563.64 265.86 3.3789-16.176h2.5l-0.59375 2.8203c1.082-1.1094 2.0976-1.918 3.0469-2.4258 0.94141-0.50391 1.9062-0.76172 2.8906-0.76172 1.3086 0 2.3398 0.35938 3.0859 1.0703 0.7461 0.70704 1.1211 1.6602 1.1211 2.8477 0 0.59766-0.13672 1.543-0.39844 2.832l-2.0547 9.793h-2.7578l2.1484-10.25c0.21094-0.99609 0.3164-1.7344 0.3164-2.207 0-0.53906-0.18359-0.97656-0.55468-1.3125-0.36719-0.33594-0.90625-0.5-1.6055-0.5-1.4141 0-2.668 0.50781-3.7695 1.5234-1.1055 1.0156-1.9102 2.7539-2.4336 5.2226l-1.5625 7.5234z"/>
   <path id="path3813" d="m582.25 260.34 2.7578-0.16797c0 0.79297 0.11719 1.4688 0.36328 2.0234 0.24219 0.55859 0.69141 1.0156 1.3477 1.375 0.65234 0.35156 1.418 0.53125 2.2891 0.53125 1.2227 0 2.1367-0.2461 2.7461-0.73047 0.60546-0.48828 0.91406-1.0625 0.91406-1.7227 0-0.47656-0.1875-0.92969-0.55078-1.3555-0.375-0.42578-1.293-0.94922-2.75-1.5742-1.457-0.625-2.3906-1.0664-2.793-1.3164-0.6836-0.41797-1.1953-0.91016-1.5391-1.4727-0.34375-0.56641-0.51954-1.2109-0.51954-1.9414 0-1.2812 0.50782-2.3789 1.5234-3.2891 1.0195-0.91797 2.4375-1.375 4.2656-1.375 2.0312 0 3.5781 0.47266 4.6367 1.4102 1.0625 0.9414 1.6133 2.1758 1.6562 3.7109l-2.6992 0.18359c-0.0391-0.97656-0.38282-1.7461-1.0352-2.3164-0.64844-0.57031-1.5664-0.85547-2.7578-0.85547-0.95313 0-1.6914 0.21875-2.2227 0.65625-0.52734 0.4375-0.78906 0.91016-0.78906 1.418 0 0.50782 0.22656 0.95313 0.68359 1.3398 0.30469 0.26172 1.0898 0.66797 2.3594 1.2188 2.1133 0.91406 3.4414 1.6367 3.9922 2.1641 0.87109 0.83984 1.3086 1.8672 1.3086 3.0742 0 0.80078-0.24609 1.5898-0.73828 2.3633-0.49219 0.76953-1.2422 1.3867-2.2539 1.8477-1.0117 0.46093-2.2031 0.69531-3.5742 0.69531-1.8633 0-3.457-0.46485-4.7656-1.3867-1.3086-0.92578-1.9297-2.4258-1.8555-4.5078"/>
   <path id="path3815" d="m602.92 256.36h9.082c0.0117-0.28515 0.0156-0.48828 0.0156-0.60937 0-1.3789-0.34765-2.4375-1.0352-3.1758-0.69531-0.73438-1.582-1.1055-2.668-1.1055-1.1758 0-2.25 0.41016-3.2227 1.2227-0.96875 0.80859-1.6914 2.0312-2.1719 3.668m8.0156 4.0078 2.6797 0.27343c-0.38672 1.3281-1.2734 2.5938-2.6602 3.7891-1.3828 1.2031-3.0352 1.8008-4.957 1.8008-1.1953 0-2.2969-0.27735-3.2969-0.83203-1-0.55469-1.7617-1.3555-2.2852-2.4141-0.51953-1.0547-0.78125-2.2578-0.78125-3.6094 0-1.7656 0.40625-3.4805 1.2227-5.1406 0.82031-1.6602 1.8789-2.8945 3.1797-3.6992 1.2969-0.8086 2.7031-1.2109 4.2148-1.2109 1.9336 0 3.4727 0.59765 4.625 1.7969 1.1523 1.1953 1.7305 2.832 1.7305 4.9024 0 0.79297-0.0742 1.6055-0.21485 2.4375h-11.91c-0.043 0.3164-0.0625 0.60156-0.0625 0.85156 0 1.5156 0.34765 2.668 1.0469 3.4648 0.69141 0.80078 1.5469 1.1953 2.5469 1.1953 0.94531 0 1.875-0.30469 2.7891-0.92579 0.91406-0.62109 1.625-1.5117 2.1328-2.6797"/>
   <path id="path3817" d="m616.93 265.86 3.3828-16.176h2.5l-0.59375 2.8203c1.0859-1.1094 2.1016-1.918 3.043-2.4258 0.94531-0.50391 1.9102-0.76172 2.8945-0.76172 1.3125 0 2.3398 0.35938 3.0859 1.0703 0.74609 0.70704 1.1211 1.6602 1.1211 2.8477 0 0.59766-0.13281 1.543-0.39844 2.832l-2.0547 9.793h-2.7578l2.1484-10.25c0.21094-0.99609 0.31641-1.7344 0.31641-2.207 0-0.53906-0.17969-0.97656-0.55078-1.3125-0.375-0.33594-0.91016-0.5-1.6133-0.5-1.4102 0-2.6641 0.50781-3.7656 1.5234-1.1016 1.0156-1.9102 2.7539-2.4297 5.2226l-1.5703 7.5234z"/>
   <path id="path3819" d="m646.69 243.39h4.6445l-2.5586 12.277-0.63672 3.0234c-0.0391 0.25391-0.0586 0.49609-0.0586 0.72266 0 0.89453 0.32422 1.6328 0.97656 2.2109 0.65235 0.58203 1.6016 0.8711 2.8477 0.8711 1.1211 0 2.043-0.20703 2.7734-0.62891 0.73437-0.42578 1.2969-1.0469 1.6992-1.8828 0.39843-0.83203 0.80468-2.2461 1.2148-4.2383l2.5898-12.355h4.6445l-2.5742 12.367c-0.54297 2.6016-1.1719 4.5938-1.8789 5.9688-0.71094 1.3789-1.7852 2.5-3.2266 3.3633-1.4375 0.86328-3.2617 1.2969-5.4609 1.2969-2.6289 0-4.6445-0.64844-6.043-1.9375-1.3984-1.2891-2.0977-2.9453-2.0977-4.9726 0-0.42188 0.0352-0.87891 0.10938-1.375 0.0391-0.32813 0.21875-1.2617 0.53906-2.8047z"/>
   <path id="path3821" d="m667.79 265.99 4.7383-22.605h4.6406l-4.7226 22.605z"/>
  </g>
 </g>
</svg>
