<svg xmlns="http://www.w3.org/2000/svg" height="56.527" viewBox="0 0 192.12129 42.394604" width="256.16"><g fill="#ff1930"><path d="M38.04 15.79c1.04 1.066 1.988 2.438 2.395 3.852 1.92 6.76-5.207 14.54-15.68 17.52-10.473 2.976-20.625.113-22.55-6.653-.4-1.415-.314-3.08.01-4.532.528-2.34-3.285 2.71-1.91 7.555C2.532 41.365 13.4 44.44 25.528 40.99c12.13-3.45 20.336-11.95 18.11-19.78-1.376-4.84-7.274-7.134-5.6-5.42"/><path d="M38.12.01c-6.57 6.918 3.023 21.734-11.29 28.703C34.54 18.45 28.535 6.823 30.324 3.29 32.113-.243 38.12.01 38.12.01M27.6 2.71c-5.38 7.832-.3 20.113-3.648 24.793-3.344 4.68-6.8 1.148-7.286-.035 7.512 4-4.746-18.492 10.934-24.758"/><path d="M23.34 28.25c-3.934 4.152-10.11 3.66-17.633 1.7C9.035 25.964 7 20.59 7.86 15.604c.816-4.734 5.648-8.86 11.054-10.45-6.715 5.466-6.008 14.817-4.933 18.47 1.958 6.656 9.36 4.625 9.36 4.625M57.94 26.76c0 1.31.27 2.512.816 3.61a5.926 5.926 0 0 0 2.426 2.57 6.662 6.662 0 0 0 3.4.933 6.96 6.96 0 0 0 3.272-.816c1.04-.543 1.96-1.3 2.78-2.27.818-.968 1.462-2.164 1.935-3.578.47-1.42.706-2.813.706-4.18 0-2.227-.62-3.997-1.863-5.317-1.247-1.32-2.782-1.98-4.61-1.98-2.336 0-4.398.996-6.183 2.992-1.79 1.992-2.68 4.676-2.68 8.035m-2.942-.152c0-3.98 1.153-7.203 3.454-9.668 2.296-2.457 5.085-3.692 8.367-3.692 2.784 0 5.05.907 6.8 2.72 1.753 1.812 2.628 4.24 2.628 7.288 0 2.172-.44 4.188-1.328 6.047-.66 1.39-1.492 2.59-2.5 3.602-1 1.01-2.078 1.793-3.222 2.34a11.086 11.086 0 0 1-4.848 1.093c-1.79 0-3.414-.425-4.883-1.277a8.3 8.3 0 0 1-3.332-3.573A10.827 10.827 0 0 1 55 26.607M78.6 35.96l3.38-16.176h2.5l-.595 2.82c1.082-1.11 2.098-1.918 3.047-2.426.94-.507 1.906-.76 2.89-.76 1.31 0 2.34.354 3.087 1.065.745.71 1.12 1.66 1.12 2.848 0 .602-.137 1.544-.4 2.837l-2.053 9.793H88.82l2.147-10.25c.21-.996.317-1.735.317-2.21 0-.54-.184-.974-.555-1.31-.368-.336-.907-.504-1.607-.504-1.414 0-2.668.508-3.77 1.524-1.105 1.015-1.91 2.758-2.433 5.226l-1.562 7.524zM97.21 30.43l2.758-.168c0 .793.117 1.473.363 2.027.243.558.692 1.015 1.35 1.37.65.356 1.417.536 2.288.536 1.223 0 2.137-.246 2.746-.735.605-.483.914-1.057.914-1.72 0-.474-.187-.927-.55-1.353-.376-.43-1.294-.953-2.75-1.578-1.458-.626-2.39-1.063-2.794-1.317-.683-.418-1.195-.91-1.54-1.473-.343-.562-.518-1.207-.518-1.94 0-1.28.507-2.376 1.523-3.29 1.02-.915 2.437-1.372 4.265-1.372 2.03 0 3.578.47 4.636 1.41 1.064.938 1.615 2.176 1.658 3.708l-2.7.183c-.04-.977-.383-1.747-1.035-2.313-.648-.57-1.566-.856-2.758-.856-.953 0-1.69.22-2.222.657-.528.438-.79.91-.79 1.415 0 .51.227.957.684 1.343.305.262 1.09.668 2.36 1.215 2.113.918 3.44 1.637 3.992 2.164.87.844 1.307 1.87 1.307 3.078 0 .8-.246 1.59-.738 2.36-.493.773-1.243 1.39-2.255 1.85-1.012.462-2.203.693-3.574.693-1.862 0-3.456-.46-4.765-1.387-1.308-.922-1.93-2.426-1.855-4.508M117.88 26.46h9.082c.012-.285.016-.488.016-.61 0-1.382-.348-2.44-1.036-3.18-.695-.733-1.582-1.1-2.668-1.1-1.175 0-2.25.406-3.222 1.218-.97.813-1.692 2.035-2.172 3.672m8.015 4.004l2.68.273c-.387 1.332-1.273 2.594-2.66 3.793-1.383 1.2-3.035 1.797-4.957 1.797-1.195 0-2.297-.273-3.297-.828s-1.76-1.36-2.284-2.415c-.52-1.06-.78-2.262-.78-3.61 0-1.77.405-3.48 1.22-5.144.822-1.66 1.88-2.89 3.18-3.698a7.854 7.854 0 0 1 4.216-1.21c1.933 0 3.472.6 4.625 1.796 1.152 1.2 1.73 2.832 1.73 4.906 0 .793-.074 1.606-.215 2.438h-11.91a6.375 6.375 0 0 0-.062.85c0 1.513.348 2.67 1.047 3.466.69.797 1.547 1.195 2.547 1.195.945 0 1.875-.308 2.79-.93.913-.617 1.624-1.51 2.132-2.68M131.89 35.96l3.383-16.176h2.5l-.594 2.82c1.085-1.11 2.1-1.918 3.042-2.426.945-.507 1.91-.76 2.895-.76 1.312 0 2.34.354 3.085 1.065.747.71 1.122 1.66 1.122 2.848 0 .602-.133 1.544-.4 2.837l-2.054 9.793h-2.757l2.148-10.25c.212-.996.317-1.735.317-2.21 0-.54-.18-.974-.55-1.31-.375-.336-.91-.504-1.614-.504-1.41 0-2.664.508-3.765 1.524-1.102 1.015-1.91 2.758-2.43 5.226l-1.57 7.524zM161.65 13.49h4.645l-2.56 12.277-.636 3.02c-.04.257-.06.5-.06.726 0 .89.325 1.633.977 2.21.652.583 1.602.872 2.848.872 1.12 0 2.043-.21 2.773-.633.735-.422 1.297-1.047 1.7-1.88.398-.83.804-2.245 1.214-4.24l2.59-12.353h4.645l-2.575 12.366c-.543 2.602-1.172 4.59-1.88 5.965-.71 1.384-1.784 2.5-3.225 3.368-1.438.86-3.262 1.293-5.46 1.293-2.63 0-4.646-.643-6.044-1.932-1.398-1.293-2.098-2.95-2.098-4.977 0-.42.035-.878.11-1.37.04-.328.218-1.266.54-2.805zM182.75 36.09l4.738-22.605h4.64l-4.722 22.605z"/></g></svg>